# This file uses centimeters as units for non-parametric coordinates.

mtllib bible.mtl
g default
v 2.913826 2.320509 3.162907
v 3.222869 2.320509 3.162907
v 2.913826 2.405263 3.162907
v 3.222869 2.405263 3.162907
v 2.913826 2.405263 2.975646
v 3.222869 2.405263 2.975646
v 2.913826 2.320509 2.975646
v 3.222869 2.320509 2.975646
v 2.913826 2.397153 3.162907
v 3.222869 2.397153 3.162907
v 3.222869 2.397153 2.975646
v 2.913826 2.397153 2.975646
v 2.913826 2.325424 3.162907
v 3.222869 2.325424 3.162907
v 3.222869 2.325424 2.975646
v 2.913826 2.325424 2.975646
v 2.913826 2.405263 2.985936
v 3.222869 2.405263 2.985936
v 3.222869 2.397153 2.985936
v 3.222869 2.325424 2.985936
v 3.222869 2.320509 2.985936
v 2.913826 2.320509 2.985936
v 2.913826 2.325424 2.985936
v 2.913826 2.397153 2.985936
v 2.919606 2.326766 3.159597
v 3.217090 2.326766 3.159597
v 3.217090 2.395812 3.159597
v 2.919606 2.395812 3.159597
v 3.217090 2.326766 2.989246
v 3.217090 2.395812 2.989246
v 2.919606 2.326766 2.989246
v 2.919606 2.395812 2.989246
v 2.973092 2.405263 3.128969
v 3.163603 2.405263 3.128969
v 3.163603 2.405263 3.019874
v 2.973092 2.405263 3.019874
v 3.092161 2.416463 3.080569
v 3.087399 2.411700 3.085331
v 2.973092 2.411700 3.085331
v 2.977854 2.416463 3.080569
v 3.087399 2.411700 3.063512
v 3.092161 2.416463 3.068274
v 2.977854 2.416463 3.068274
v 2.973092 2.411700 3.063512
v 3.106450 2.411700 3.085331
v 3.101688 2.416463 3.080569
v 3.158841 2.416463 3.080569
v 3.163603 2.411700 3.085331
v 3.158841 2.416463 3.068274
v 3.163603 2.411700 3.063512
v 3.101688 2.416463 3.068274
v 3.106450 2.411700 3.063512
v 3.087399 2.411700 3.019874
v 3.092161 2.416463 3.024636
v 3.101688 2.416463 3.024636
v 3.106450 2.411700 3.019874
v 3.092161 2.416463 3.124206
v 3.087399 2.411700 3.128969
v 3.101688 2.416463 3.124206
v 3.106450 2.411700 3.128969
v 3.164890 2.405263 3.086618
v 3.163603 2.406550 3.085331
v 3.164890 2.405263 3.062225
v 3.163603 2.406550 3.063512
v 2.971804 2.405263 3.086618
v 2.973092 2.406550 3.085331
v 2.971804 2.405263 3.062225
v 2.973092 2.406550 3.063512
v 3.107737 2.405263 3.086618
v 3.106450 2.406550 3.085331
v 3.086111 2.405263 3.062225
v 3.087399 2.406550 3.063512
v 3.086111 2.405263 3.130256
v 3.087399 2.406550 3.128969
v 3.107737 2.405263 3.130256
v 3.106450 2.406550 3.128969
v 3.086111 2.405263 3.086618
v 3.087399 2.406550 3.085331
v 3.107737 2.405263 3.062225
v 3.106450 2.406550 3.063512
v 3.086111 2.405263 3.018587
v 3.087399 2.406550 3.019874
v 3.107737 2.405263 3.018587
v 3.106450 2.406550 3.019874
vt 0.375000 0.000000
vt 0.625000 0.000000
vt 0.375000 0.500000
vt 0.625000 0.500000
vt 0.375000 0.750000
vt 0.625000 0.750000
vt 0.375000 1.000000
vt 0.625000 1.000000
vt 0.875000 0.000000
vt 0.875000 0.250000
vt 0.125000 0.000000
vt 0.125000 0.250000
vt 0.375000 0.226080
vt 0.625000 0.226080
vt 0.625000 0.523920
vt 0.875000 0.226080
vt 0.125000 0.226080
vt 0.375000 0.523920
vt 0.375000 0.014499
vt 0.625000 0.014499
vt 0.625000 0.735502
vt 0.875000 0.014498
vt 0.125000 0.014498
vt 0.375000 0.735502
vt 0.138737 0.250000
vt 0.861263 0.250000
vt 0.861263 0.226080
vt 0.861263 0.014499
vt 0.625000 0.763737
vt 0.861263 0.000000
vt 0.138737 0.000000
vt 0.375000 0.763737
vt 0.138737 0.014499
vt 0.138737 0.226080
vt 0.375000 0.014499
vt 0.625000 0.014499
vt 0.625000 0.226080
vt 0.375000 0.226080
vt 0.861263 0.014499
vt 0.861263 0.226080
vt 0.138737 0.226080
vt 0.138737 0.014499
vt 0.381249 0.354819
vt 0.381249 0.381444
vt 0.531249 0.475949
vt 0.543750 0.260314
vt 0.618750 0.354819
vt 0.618750 0.381444
vt 0.531249 0.381444
vt 0.543750 0.475949
vt 0.531249 0.354819
vt 0.543750 0.381444
vt 0.531249 0.260314
vt 0.543750 0.354819
vt 0.523310 0.341717
vt 0.551689 0.394546
vt 0.375000 0.343314
vt 0.625000 0.250000
vt 0.520361 0.250000
vt 0.625000 0.486263
vt 0.625000 0.340121
vt 0.375000 0.486263
vt 0.554639 0.486263
vt 0.375000 0.250000
vt 0.375000 0.250000
vt 0.375000 0.396142
vt 0.523310 0.394546
vt 0.526260 0.486263
vt 0.375000 0.486263
vt 0.551689 0.341717
vt 0.548739 0.250000
vt 0.625000 0.250000
vt 0.625000 0.392949
vt 0.625000 0.486263
vt 0.525000 0.344505
vt 0.375000 0.344505
vt 0.375000 0.391758
vt 0.525000 0.391758
vt 0.375000 0.344505
vt 0.375000 0.391758
vt 0.625000 0.344505
vt 0.550000 0.344505
vt 0.625000 0.391758
vt 0.625000 0.344505
vt 0.550000 0.391758
vt 0.625000 0.391758
vt 0.525000 0.391758
vt 0.525000 0.486263
vt 0.550000 0.486263
vt 0.550000 0.391758
vt 0.525000 0.486263
vt 0.550000 0.486263
vt 0.525000 0.250000
vt 0.525000 0.344505
vt 0.550000 0.250000
vt 0.525000 0.250000
vt 0.550000 0.344505
vt 0.550000 0.250000
vn 0.000000 0.000000 1.000000
vn 0.000000 0.000000 1.000000
vn 0.000000 0.000000 1.000000
vn 0.000000 0.000000 1.000000
vn 0.000000 1.000000 0.000000
vn 0.000000 1.000000 0.000000
vn 0.000000 1.000000 0.000000
vn 0.000000 1.000000 0.000000
vn 0.000000 0.000000 -1.000000
vn 0.000000 0.000000 -1.000000
vn 0.000000 0.000000 -1.000000
vn 0.000000 0.000000 -1.000000
vn 0.000000 -1.000000 0.000000
vn 0.000000 -1.000000 0.000000
vn 0.000000 -1.000000 0.000000
vn 0.000000 -1.000000 0.000000
vn 1.000000 0.000000 0.000000
vn 1.000000 0.000000 0.000000
vn 1.000000 0.000000 0.000000
vn 1.000000 0.000000 0.000000
vn -1.000000 0.000000 0.000000
vn -1.000000 -0.000026 0.000000
vn -1.000000 -0.000039 0.000000
vn -1.000000 0.000000 0.000000
vn 0.000000 0.000000 1.000000
vn 0.000000 0.000000 1.000000
vn 0.000000 0.000000 1.000000
vn 0.000000 0.000000 1.000000
vn 1.000000 0.000000 0.000000
vn 1.000000 0.000000 0.000000
vn 0.000000 0.000000 -1.000000
vn 0.000000 0.000000 -1.000000
vn -1.000000 0.000000 0.000000
vn -1.000000 0.000000 0.000000
vn 0.000000 0.000000 1.000000
vn 0.000000 0.000000 1.000000
vn 0.000000 0.000000 1.000000
vn 0.000000 0.000000 1.000000
vn 1.000000 0.000000 0.000000
vn 1.000000 0.000000 0.000000
vn 0.000000 0.000000 -1.000000
vn 0.000000 0.000000 -1.000000
vn -1.000000 0.000000 0.000000
vn -1.000000 0.000000 0.000000
vn 1.000000 0.000000 0.000000
vn 1.000000 0.000000 0.000000
vn 1.000000 0.000000 0.000000
vn 1.000000 0.000000 0.000000
vn 1.000000 0.000000 0.000000
vn 1.000000 0.000000 0.000000
vn 1.000000 0.000000 0.000000
vn 1.000000 0.000000 0.000000
vn 0.000000 -1.000000 0.000000
vn 0.000000 -1.000000 0.000000
vn -1.000000 0.000000 0.000000
vn -1.000000 0.000000 0.000000
vn -1.000000 0.000000 0.000000
vn -1.000000 0.000000 0.000000
vn -1.000000 0.000000 0.000000
vn -1.000000 0.000000 0.000000
vn -1.000000 -0.000042 0.000000
vn -1.000000 -0.000042 0.000000
vn 0.000000 0.926750 0.375678
vn 0.000000 0.926750 0.375678
vn 0.000000 0.926750 0.375678
vn 0.000000 0.926750 0.375678
vn 0.000000 -0.926777 0.375611
vn 0.000000 -0.926777 0.375611
vn 0.000000 -0.926777 0.375611
vn 0.000000 -0.926777 0.375611
vn 0.226174 0.974087 0.000000
vn 0.226174 0.974087 0.000000
vn 0.226174 0.974087 0.000000
vn 0.226174 0.974087 0.000000
vn 0.496979 0.000000 0.867763
vn 0.496979 0.000000 0.867763
vn 0.496979 0.000000 0.867763
vn 0.496979 0.000000 0.867763
vn 0.226098 -0.974105 0.000000
vn 0.226098 -0.974105 0.000000
vn 0.226098 -0.974105 0.000000
vn 0.226098 -0.974105 0.000000
vn -0.496928 0.000000 0.867792
vn -0.496928 0.000000 0.867792
vn -0.496928 0.000000 0.867792
vn -0.496928 0.000000 0.867792
vn -0.226137 0.974096 0.000000
vn -0.226137 0.974096 0.000000
vn -0.226137 0.974096 0.000000
vn -0.226137 0.974096 0.000000
vn -0.226061 -0.974113 0.000000
vn -0.226061 -0.974113 0.000000
vn -0.226061 -0.974113 0.000000
vn -0.226061 -0.974113 0.000000
vn -0.707123 0.707091 0.000000
vn -0.707123 0.707091 0.000000
vn -0.707123 0.707091 0.000000
vn -0.707123 0.707091 0.000000
vn 0.000000 0.707103 0.707110
vn 0.000000 0.707103 0.707110
vn 0.000000 0.707103 0.707110
vn 0.000000 0.707103 0.707110
vn -0.707091 0.707123 0.000000
vn -0.707091 0.707123 0.000000
vn -0.707091 0.707123 0.000000
vn -0.707091 0.707123 0.000000
vn -0.707126 0.707088 0.000000
vn -0.707126 0.707088 0.000000
vn -0.707126 0.707088 0.000000
vn -0.707126 0.707088 0.000000
vn 0.000000 0.707103 -0.707110
vn 0.000000 0.707103 -0.707110
vn 0.000000 0.707103 -0.707110
vn 0.000000 0.707103 -0.707110
vn 0.707097 0.707116 0.000000
vn 0.707097 0.707116 0.000000
vn 0.707097 0.707116 0.000000
vn 0.707097 0.707116 0.000000
vn 0.000000 0.707109 0.707104
vn 0.000000 0.707109 0.707104
vn 0.000000 0.707109 0.707104
vn 0.000000 0.707109 0.707104
vn 0.707107 0.707107 0.000000
vn 0.707107 0.707107 0.000000
vn 0.707107 0.707107 0.000000
vn 0.707107 0.707107 0.000000
vn 0.000000 0.707109 -0.707104
vn 0.000000 0.707109 -0.707104
vn 0.000000 0.707109 -0.707104
vn 0.000000 0.707109 -0.707104
vn 0.707075 0.707138 0.000000
vn 0.707075 0.707138 0.000000
vn 0.707075 0.707138 0.000000
vn 0.707075 0.707138 0.000000
vn 0.000000 0.707087 -0.707126
vn 0.000000 0.707087 -0.707126
vn 0.000000 0.707087 -0.707126
vn 0.000000 0.707087 -0.707126
vn 0.000000 0.707087 0.707126
vn 0.000000 0.707087 0.707126
vn 0.000000 0.707087 0.707126
vn 0.000000 0.707087 0.707126
vn 0.000000 1.000000 0.000000
vn 0.000000 1.000000 0.000000
vn 0.000000 1.000000 0.000000
vn 0.000000 1.000000 0.000000
vn 0.000000 1.000000 0.000000
vn 0.000000 1.000000 0.000000
vn 0.000000 1.000000 0.000000
vn 0.000000 1.000000 0.000000
vn 0.000000 1.000000 0.000000
vn 0.000000 1.000000 0.000000
vn 0.000000 1.000000 0.000000
vn 0.000000 1.000000 0.000000
vn 0.000000 0.707075 0.707138
vn 0.000000 0.707075 0.707138
vn 0.000000 0.707075 0.707138
vn 0.000000 0.707075 0.707138
vn 0.707112 0.707101 0.000000
vn 0.707112 0.707101 0.000000
vn 0.707112 0.707101 0.000000
vn 0.707112 0.707101 0.000000
vn 0.000000 0.707075 -0.707138
vn 0.000000 0.707075 -0.707138
vn 0.000000 0.707075 -0.707138
vn 0.000000 0.707075 -0.707138
vn -0.707112 0.707101 0.000000
vn -0.707112 0.707101 0.000000
vn -0.707112 0.707101 0.000000
vn -0.707112 0.707101 0.000000
vn 0.000000 0.707117 0.707097
vn 0.000000 0.707117 0.707097
vn 0.000000 0.707117 0.707097
vn 0.000000 0.707117 0.707097
vn 0.000000 0.707117 -0.707097
vn 0.000000 0.707117 -0.707097
vn 0.000000 0.707117 -0.707097
vn 0.000000 0.707117 -0.707097
vn 0.707162 0.707051 0.000000
vn 0.707162 0.707051 0.000000
vn 0.707162 0.707051 0.000000
vn 0.707162 0.707051 0.000000
vn -0.707070 0.707143 0.000000
vn -0.707070 0.707143 0.000000
vn -0.707070 0.707143 0.000000
vn -0.707070 0.707143 0.000000
vn -0.707069 0.707145 0.000000
vn -0.707069 0.707145 0.000000
vn -0.707069 0.707145 0.000000
vn -0.707069 0.707145 0.000000
vn 0.000000 0.707101 0.707113
vn 0.000000 0.707101 0.707113
vn 0.000000 0.707101 0.707113
vn 0.000000 0.707101 0.707113
vn 0.707164 0.707050 0.000000
vn 0.707164 0.707050 0.000000
vn 0.707164 0.707050 0.000000
vn 0.707164 0.707050 0.000000
vn 0.000000 0.707101 -0.707113
vn 0.000000 0.707101 -0.707113
vn 0.000000 0.707101 -0.707113
vn 0.000000 0.707101 -0.707113
vn 0.000000 1.000000 -0.000000
vn 0.000000 1.000000 -0.000000
vn 0.000000 1.000000 -0.000001
vn 0.000000 1.000000 -0.000000
vn 0.000000 1.000000 0.000000
vn 0.000000 1.000000 0.000000
vn 0.000000 1.000000 -0.000000
vn 0.000000 1.000000 -0.000000
vn 0.000000 1.000000 0.000000
vn 0.000000 1.000000 0.000000
vn 0.000000 1.000000 -0.000000
vn 0.000000 1.000000 0.000000
vn 0.000000 1.000000 0.000000
vn 0.000000 1.000000 0.000000
vn 0.000000 1.000000 0.000000
vn 0.000000 1.000000 0.000001
vn 0.000000 1.000000 -0.000003
vn 0.000000 1.000000 0.000003
vn 0.000000 0.000000 1.000000
vn 0.000000 0.000000 1.000000
vn 0.000000 0.000000 1.000000
vn 0.000000 0.000000 1.000000
vn 0.000000 0.000000 -1.000000
vn 0.000000 0.000000 -1.000000
vn 0.000000 0.000000 -1.000000
vn 0.000000 0.000000 -1.000000
vn -1.000000 0.000000 0.000000
vn -1.000000 0.000000 0.000000
vn -1.000000 0.000000 0.000000
vn -1.000000 0.000000 0.000000
vn 0.000000 0.000000 1.000000
vn 0.000000 0.000000 1.000000
vn 0.000000 0.000000 1.000000
vn 0.000000 0.000000 1.000000
vn 1.000000 0.000000 0.000000
vn 1.000000 0.000000 0.000000
vn 1.000000 0.000000 0.000000
vn 1.000000 0.000000 0.000000
vn 0.000000 0.000000 -1.000000
vn 0.000000 0.000000 -1.000000
vn 0.000000 0.000000 -1.000000
vn 0.000000 0.000000 -1.000000
vn -1.000000 0.000000 0.000000
vn -1.000000 0.000000 0.000000
vn -1.000000 0.000000 0.000000
vn -1.000000 0.000000 0.000000
vn 1.000000 0.000000 0.000000
vn 1.000000 0.000000 0.000000
vn 1.000000 0.000000 0.000000
vn 1.000000 0.000000 0.000000
vn 0.000000 0.000000 -1.000000
vn 0.000000 0.000000 -1.000000
vn 0.000000 0.000000 -1.000000
vn 0.000000 0.000000 -1.000000
vn -1.000000 0.000000 0.000000
vn -1.000000 0.000000 0.000000
vn -1.000000 0.000000 0.000000
vn -1.000000 0.000000 0.000000
vn 0.000000 0.000000 1.000000
vn 0.000000 0.000000 1.000000
vn 0.000000 0.000000 1.000000
vn 0.000000 0.000000 1.000000
vn 1.000000 0.000000 0.000000
vn 1.000000 0.000000 0.000000
vn 1.000000 0.000000 0.000000
vn 1.000000 0.000000 0.000000
s off
g bible tiroir table_nuit
usemtl initialShadingGroup
f 9/13/1 10/14/2 4/58/3 3/64/4
s 1
f 17/62/5 18/60/6 6/4/7 5/3/8
s 2
f 5/3/9 6/4/10 11/15/11 12/18/12
s 3
f 7/5/13 8/6/14 21/29/15 22/32/16
s 4
f 18/26/17 19/27/18 11/16/19 6/10/20
s 5
f 12/17/21 24/34/22 17/25/23 5/12/24
s off
f 25/35/25 26/36/26 27/37/27 28/38/28
s 4
f 19/27/18 20/28/29 15/22/30 11/16/19
s 2
f 12/18/12 11/15/11 15/21/31 16/24/32
s 5
f 16/23/33 23/33/34 24/34/22 12/17/21
s off
f 1/1/35 2/2/36 14/20/37 13/19/38
s 4
f 20/28/29 21/30/39 8/9/40 15/22/30
s 2
f 16/24/32 15/21/31 8/6/41 7/5/42
s 5
f 7/11/43 22/31/44 23/33/34 16/23/33
s 4
f 10/14/45 19/27/18 18/26/17 4/58/46
s off
f 26/36/47 29/39/48 30/40/49 27/37/50
s 4
f 2/2/51 21/30/39 20/28/29 14/20/52
s 3
f 22/32/16 21/29/15 2/8/53 1/7/54
s 5
f 23/33/34 22/31/44 1/1/55 13/19/56
s off
f 32/41/57 31/42/58 25/35/59 28/38/60
s 5
f 17/25/23 24/34/22 9/13/61 3/64/62
s off
f 13/19/63 14/20/64 26/36/65 25/35/66
f 10/14/67 9/13/68 28/38/69 27/37/70
f 14/20/71 20/28/72 29/39/73 26/36/74
f 20/28/75 19/27/76 30/40/77 29/39/78
f 19/27/79 10/14/80 27/37/81 30/40/82
f 24/34/83 23/33/84 31/42/85 32/41/86
f 23/33/87 13/19/88 25/35/89 31/42/90
f 9/13/91 24/34/92 32/41/93 28/38/94
f 37/51/95 38/94/96 58/96/97 57/53/98
f 38/94/99 37/51/100 40/43/101 39/76/102
f 39/76/103 40/43/104 43/44/105 44/80/106
f 41/78/107 42/49/108 54/45/109 53/88/110
f 42/49/111 41/78/112 44/80/113 43/44/114
f 45/82/115 46/54/116 59/46/117 60/98/118
f 46/54/119 45/82/120 48/84/121 47/47/122
f 47/47/123 48/84/124 50/86/125 49/48/126
f 49/48/127 50/86/128 52/90/129 51/52/130
f 51/52/131 52/90/132 56/92/133 55/50/134
f 53/88/135 54/45/136 55/50/137 56/92/138
f 57/53/139 58/96/140 60/98/141 59/46/142
s 6
f 40/43/143 37/51/144 42/49/145 43/44/146
f 51/52/147 46/54/148 47/47/149 49/48/150
f 54/45/151 42/49/145 51/52/147 55/50/152
f 42/49/145 37/51/144 46/54/148 51/52/147
f 37/51/144 57/53/153 59/46/154 46/54/148
s off
f 61/61/155 62/81/156 70/97/157 69/70/158
f 62/81/159 61/61/160 63/73/161 64/83/162
f 64/83/163 63/73/164 79/56/165 80/85/166
f 65/57/167 66/79/168 68/77/169 67/66/170
f 66/79/171 65/57/172 77/55/173 78/75/174
f 67/66/175 68/77/176 72/87/177 71/67/178
f 69/70/179 70/97/180 76/95/181 75/71/182
f 71/67/183 72/87/184 82/91/185 81/68/186
f 73/59/187 74/93/188 78/75/189 77/55/190
f 74/93/191 73/59/192 75/71/193 76/95/194
f 80/85/195 79/56/196 83/63/197 84/89/198
f 81/68/199 82/91/200 84/89/201 83/63/202
s 1
f 33/65/203 73/59/204 77/55/205 65/57/206
f 3/64/207 4/58/208 34/72/209 75/71/210 73/59/204 33/65/203
f 4/58/208 18/60/6 35/74/211 63/73/212 61/61/213 34/72/209
f 18/60/6 17/62/5 36/69/214 81/68/215 83/63/216 35/74/211
f 17/62/5 3/64/207 33/65/203 65/57/206 67/66/217 36/69/214
f 67/66/217 71/67/218 81/68/215 36/69/214
f 69/70/219 75/71/210 34/72/209 61/61/213
f 83/63/216 79/56/220 63/73/212 35/74/211
s off
f 66/79/221 78/75/222 38/94/223 39/76/224
f 72/87/225 68/77/226 44/80/227 41/78/228
f 68/77/229 66/79/230 39/76/231 44/80/232
f 70/97/233 62/81/234 48/84/235 45/82/236
f 62/81/237 64/83/238 50/86/239 48/84/240
f 64/83/241 80/85/242 52/90/243 50/86/244
f 82/91/245 72/87/246 41/78/247 53/88/248
f 80/85/249 84/89/250 56/92/251 52/90/252
f 84/89/253 82/91/254 53/88/255 56/92/256
f 78/75/257 74/93/258 58/96/259 38/94/260
f 74/93/261 76/95/262 60/98/263 58/96/264
f 76/95/265 70/97/266 45/82/267 60/98/268
