# Blender v2.76 (sub 0) OBJ File: 'coffre.blend'
# www.blender.org
mtllib bouteille.mtl
o Cylinder_Cylinder.002
v 0.025106 0.847962 -0.100444
v 0.155679 0.847962 0.030129
v 0.155680 0.847962 0.214788
v 0.025106 0.847962 0.345361
v -0.159552 0.847962 0.345361
v -0.290126 0.847962 0.214788
v 0.050862 1.281458 0.073546
v -0.159552 0.847962 -0.100444
v -0.290126 0.847962 0.030129
v -0.067223 -0.034738 0.122458
v -0.278059 -0.021574 0.035127
v -0.154554 -0.021574 -0.088378
v -0.278059 -0.021574 0.209790
v -0.154554 -0.021574 0.333295
v 0.020108 -0.021574 0.333295
v 0.143613 -0.021574 0.209790
v 0.143613 -0.021574 0.035127
v 0.020108 -0.021574 -0.088378
v -0.288464 0.287561 0.030817
v -0.158864 0.287561 -0.098783
v -0.288464 0.287561 0.214099
v -0.158864 0.287561 0.343699
v 0.024418 0.287561 0.343699
v 0.154018 0.287561 0.214099
v 0.154018 0.287561 0.030817
v 0.024418 0.287561 -0.098783
v -0.101513 1.519299 0.205242
v -0.116136 1.281458 0.240544
v -0.116136 1.281458 0.004373
v -0.018311 1.281458 0.004373
v 0.050862 1.281458 0.171371
v -0.185308 1.281458 0.171371
v -0.018311 1.281458 0.240544
v -0.185308 1.281458 0.073546
v -0.067223 1.713794 0.122458
v 0.015561 1.519299 0.156749
v -0.032933 1.519299 0.039674
v -0.101513 1.519299 0.039674
v -0.150007 1.519299 0.156749
v -0.032933 1.519299 0.205242
v 0.015561 1.519299 0.088168
v -0.150007 1.519299 0.088168
v -0.243786 1.206681 0.049323
v 0.005912 1.206681 0.299022
v -0.243786 1.206681 0.195593
v 0.109340 1.206681 0.195593
v 0.005912 1.206681 -0.054105
v -0.140358 1.206681 -0.054105
v -0.140358 1.206681 0.299022
v 0.109340 1.206681 0.049323
v 0.144641 1.143822 0.034701
v -0.154980 1.143822 0.334323
v -0.154980 1.143822 -0.089406
v 0.020534 1.143822 -0.089406
v 0.144641 1.143822 0.210215
v -0.279087 1.143822 0.210215
v 0.020534 1.143822 0.334323
v -0.279087 1.143822 0.034701
v -0.003760 -0.031447 -0.030754
v 0.024188 1.054142 -0.098228
v -0.067223 0.847962 -0.119566
v 0.094650 -0.021574 -0.039415
v 0.085989 -0.031447 0.058996
v 0.153463 1.054142 0.031047
v 0.161700 -0.021574 0.122458
v 0.085989 -0.031447 0.185921
v 0.153463 1.054142 0.213870
v 0.094650 -0.021574 0.284332
v -0.003760 -0.031447 0.275671
v 0.024188 1.054142 0.343145
v -0.067223 -0.021574 0.351382
v -0.130686 -0.031447 0.275671
v -0.158634 1.054142 0.343145
v -0.229096 -0.021574 0.284331
v -0.220435 -0.031447 0.185921
v -0.287909 1.054142 0.213870
v -0.296146 -0.021574 0.122458
v -0.220435 -0.031447 0.058996
v -0.287909 1.054142 0.031047
v -0.229096 -0.021574 -0.039415
v -0.130686 -0.031447 -0.030754
v -0.158634 1.054142 -0.098228
v -0.067223 -0.021574 -0.106465
v 0.102639 0.287561 -0.047403
v 0.172998 0.287561 0.122458
v 0.102639 0.287561 0.292320
v -0.067223 0.287561 0.362679
v -0.237085 0.287561 0.292320
v -0.307444 0.287561 0.122458
v -0.237085 0.287561 -0.047403
v -0.285575 0.062292 0.032014
v -0.157668 0.062292 -0.095894
v -0.285575 0.062292 0.212903
v -0.157668 0.062292 0.340811
v 0.023221 0.062292 0.340811
v 0.151129 0.062292 0.212903
v 0.151129 0.062292 0.032014
v 0.023221 0.062292 -0.095894
v -0.067223 0.287561 -0.117762
v 0.103914 0.847962 -0.048679
v 0.174802 0.847962 0.122458
v 0.103914 0.847962 0.293596
v -0.067223 0.847962 0.364483
v -0.238360 0.847962 0.293596
v -0.309248 0.847962 0.122458
v -0.238360 0.847962 -0.048679
v -0.289167 0.575647 0.030526
v -0.159155 0.575647 -0.099486
v -0.289167 0.575647 0.214391
v -0.159155 0.575647 0.344402
v 0.024709 0.575647 0.344402
v 0.154721 0.575647 0.214391
v 0.154721 0.575647 0.030526
v 0.024709 0.575647 -0.099486
v -0.029277 1.362591 0.030849
v 0.024386 1.362591 0.084512
v 0.024386 1.362591 0.160404
v -0.029277 1.362591 0.214068
v -0.105169 1.362591 0.214068
v -0.158832 1.362591 0.160404
v -0.158832 1.362591 0.084512
v -0.105169 1.362591 0.030849
v 0.023439 1.281458 0.031796
v 0.162816 1.143822 0.122458
v -0.067223 1.281458 0.250674
v -0.229886 1.143822 0.285121
v -0.157885 1.281458 0.031796
v -0.067223 1.143822 -0.107581
v 0.095439 1.143822 0.285121
v -0.297263 1.143822 0.122458
v -0.033134 1.712650 0.040161
v 0.015074 1.712650 0.088370
v 0.015074 1.712650 0.156547
v -0.033134 1.712650 0.204755
v -0.101312 1.712650 0.204755
v -0.149520 1.712650 0.156547
v -0.149520 1.712650 0.088370
v -0.101312 1.712650 0.040161
v -0.067223 1.519299 0.212344
v -0.130782 1.519299 0.186017
v 0.022663 1.519299 0.122458
v -0.003664 1.519299 0.186017
v -0.067223 1.519299 0.032572
v -0.003664 1.519299 0.058899
v -0.130782 1.519299 0.058899
v -0.157109 1.519299 0.122458
v 0.068336 1.206681 -0.013101
v 0.060992 1.281458 0.122458
v -0.067223 1.206681 0.314168
v -0.157885 1.281458 0.213120
v -0.202782 1.206681 -0.013101
v -0.067223 1.281458 -0.005757
v 0.023439 1.281458 0.213120
v -0.195439 1.281458 0.122458
v -0.217578 1.241090 0.060179
v -0.004944 1.241090 0.272814
v -0.217578 1.241090 0.184738
v 0.083132 1.241090 0.184738
v -0.004944 1.241090 -0.027897
v -0.129502 1.241090 -0.027897
v -0.129502 1.241090 0.272814
v 0.083132 1.241090 0.060179
v 0.124487 1.206681 0.122458
v -0.202782 1.206681 0.258018
v -0.067223 1.206681 -0.069252
v 0.068336 1.206681 0.258018
v -0.258933 1.206681 0.122458
v 0.095439 1.143822 -0.040204
v -0.067223 1.143822 0.352498
v -0.229886 1.143822 -0.040204
v 0.129754 1.175252 0.040868
v -0.148814 1.175252 0.319435
v -0.148814 1.175252 -0.074518
v 0.014367 1.175252 -0.074518
v 0.129754 1.175252 0.204049
v -0.264200 1.175252 0.204049
v 0.014367 1.175252 0.319435
v -0.264200 1.175252 0.040868
v -0.067223 -0.028888 -0.068622
v -0.067223 1.054142 -0.117160
v 0.067891 -0.028888 -0.012656
v 0.102213 1.054142 -0.046977
v 0.123857 -0.028888 0.122458
v 0.172395 1.054142 0.122458
v 0.067891 -0.028888 0.257572
v 0.102213 1.054142 0.291894
v -0.067223 -0.028888 0.313538
v -0.067223 1.054142 0.362076
v -0.202337 -0.028888 0.257572
v -0.236659 1.054142 0.291894
v -0.258303 -0.028888 0.122458
v -0.306841 1.054142 0.122458
v -0.202337 -0.028888 -0.012656
v -0.236659 1.054142 -0.046977
v -0.067223 0.062292 -0.114626
v 0.100421 0.062292 -0.045185
v 0.169861 0.062292 0.122458
v 0.100421 0.062292 0.290102
v -0.067223 0.062292 0.359542
v -0.234867 0.062292 0.290102
v -0.304307 0.062292 0.122458
v -0.234867 0.062292 -0.045185
v -0.067223 0.575647 -0.118525
v 0.103178 0.575647 -0.047943
v 0.173761 0.575647 0.122458
v 0.103178 0.575647 0.292860
v -0.067223 0.575647 0.363442
v -0.237624 0.575647 0.292860
v -0.308207 0.575647 0.122458
v -0.237624 0.575647 -0.047943
v 0.003112 1.362591 0.052124
v -0.067223 1.362591 0.022990
v 0.032245 1.362591 0.122458
v 0.003112 1.362591 0.192793
v -0.067223 1.362591 0.221927
v -0.137558 1.362591 0.192793
v -0.166691 1.362591 0.122458
v -0.137558 1.362591 0.052124
v -0.003883 1.711760 0.059118
v -0.067223 1.711760 0.032882
v 0.022354 1.711760 0.122458
v -0.003883 1.711760 0.185799
v -0.067223 1.711760 0.212035
v -0.130563 1.711760 0.185799
v -0.156800 1.711760 0.122458
v -0.130563 1.711760 0.059118
v 0.048215 1.241090 0.007020
v 0.096031 1.241090 0.122458
v -0.067223 1.241090 0.285712
v -0.182661 1.241090 0.237896
v -0.182661 1.241090 0.007020
v -0.067223 1.241090 -0.040795
v 0.048215 1.241090 0.237896
v -0.230477 1.241090 0.122458
v 0.146652 1.175252 0.122458
v -0.218455 1.175252 0.273691
v -0.067223 1.175252 -0.091416
v 0.084009 1.175252 0.273691
v -0.281098 1.175252 0.122458
v 0.084009 1.175252 -0.028774
v -0.067223 1.175252 0.336333
v -0.218455 1.175252 -0.028774
vn 0.202800 -0.003700 -0.979200
vn 0.202800 0.011400 -0.979200
vn 0.549000 0.011400 -0.835800
vn 0.549000 -0.003700 -0.835800
vn 0.835800 -0.003700 -0.549000
vn 0.835800 0.011400 -0.549000
vn 0.979200 0.011400 -0.202800
vn 0.979200 -0.003700 -0.202800
vn 0.979200 -0.003700 0.202800
vn 0.979200 0.011400 0.202800
vn 0.835800 0.011400 0.549000
vn 0.835800 -0.003700 0.549000
vn 0.549000 -0.003700 0.835800
vn 0.549000 0.011400 0.835800
vn 0.202800 0.011400 0.979200
vn 0.202800 -0.003700 0.979200
vn -0.202800 -0.003700 0.979200
vn -0.202800 0.011400 0.979200
vn -0.549000 0.011400 0.835800
vn -0.549000 -0.003700 0.835800
vn -0.835800 -0.003700 0.549000
vn -0.835800 0.011400 0.549000
vn -0.979200 0.011400 0.202800
vn -0.979200 -0.003700 0.202800
vn 0.746100 0.647600 -0.154500
vn 0.636900 0.647600 -0.418300
vn 0.789600 0.327800 -0.518700
vn 0.925100 0.327800 -0.191600
vn -0.549000 -0.003700 -0.835800
vn -0.549000 0.011400 -0.835800
vn -0.202800 0.011400 -0.979200
vn -0.202800 -0.003700 -0.979200
vn -0.979200 -0.003700 -0.202800
vn -0.979200 0.011400 -0.202800
vn -0.835800 0.011400 -0.549000
vn -0.835800 -0.003700 -0.549000
vn 0.000000 -0.999500 -0.030600
vn 0.021600 -0.999500 -0.021600
vn 0.030600 -0.999500 0.000000
vn 0.021600 -0.999500 0.021600
vn 0.000000 -0.999500 0.030600
vn -0.021600 -0.999500 0.021600
vn -0.030600 -0.999500 0.000000
vn -0.021600 -0.999500 -0.021600
vn -0.166100 -0.985100 -0.044900
vn -0.974800 -0.094900 -0.201900
vn -0.832000 -0.094900 -0.546500
vn -0.149200 -0.985100 -0.085700
vn -0.085700 -0.985100 -0.149200
vn -0.546500 -0.094900 -0.832000
vn -0.201900 -0.094900 -0.974800
vn -0.044900 -0.985100 -0.166100
vn -0.149200 -0.985100 0.085700
vn -0.832000 -0.094900 0.546500
vn -0.974800 -0.094900 0.201900
vn -0.166100 -0.985100 0.044900
vn -0.044900 -0.985100 0.166100
vn -0.201900 -0.094900 0.974800
vn -0.546500 -0.094900 0.832000
vn -0.085700 -0.985100 0.149200
vn 0.085700 -0.985100 0.149200
vn 0.546500 -0.094900 0.832000
vn 0.201900 -0.094900 0.974800
vn 0.044900 -0.985100 0.166100
vn 0.166100 -0.985100 0.044900
vn 0.974800 -0.094900 0.201900
vn 0.832000 -0.094900 0.546500
vn 0.149200 -0.985100 0.085700
vn 0.149200 -0.985100 -0.085700
vn 0.832000 -0.094900 -0.546500
vn 0.974800 -0.094900 -0.201900
vn 0.166100 -0.985100 -0.044900
vn 0.044900 -0.985100 -0.166100
vn 0.201900 -0.094900 -0.974800
vn 0.546500 -0.094900 -0.832000
vn 0.085700 -0.985100 -0.149200
vn -0.979100 -0.013600 -0.202800
vn -0.979200 -0.002600 -0.202800
vn -0.835800 -0.002600 -0.549000
vn -0.835700 -0.013600 -0.549000
vn -0.549000 -0.013600 -0.835700
vn -0.549000 -0.002600 -0.835800
vn -0.202800 -0.002600 -0.979200
vn -0.202800 -0.013600 -0.979100
vn -0.835700 -0.013600 0.549000
vn -0.835800 -0.002600 0.549000
vn -0.979200 -0.002600 0.202800
vn -0.979100 -0.013600 0.202800
vn -0.202800 -0.013600 0.979100
vn -0.202800 -0.002600 0.979200
vn -0.549000 -0.002600 0.835800
vn -0.549000 -0.013600 0.835700
vn 0.549000 -0.013600 0.835700
vn 0.549000 -0.002600 0.835800
vn 0.202800 -0.002600 0.979200
vn 0.202800 -0.013600 0.979100
vn 0.979100 -0.013600 0.202800
vn 0.979200 -0.002600 0.202800
vn 0.835800 -0.002600 0.549000
vn 0.835700 -0.013600 0.549000
vn 0.835700 -0.013600 -0.549000
vn 0.835800 -0.002600 -0.549000
vn 0.979200 -0.002600 -0.202800
vn 0.979100 -0.013600 -0.202800
vn 0.202800 -0.013600 -0.979100
vn 0.202800 -0.002600 -0.979200
vn 0.549000 -0.002600 -0.835800
vn 0.549000 -0.013600 -0.835700
vn -0.548000 0.059800 0.834300
vn -0.202400 0.059800 0.977500
vn -0.205800 0.002100 0.978600
vn -0.546500 0.002100 0.837500
vn -0.418300 0.647600 0.636900
vn -0.154500 0.647600 0.746100
vn -0.191600 0.327800 0.925100
vn -0.518700 0.327800 0.789600
vn -0.154500 0.647600 -0.746100
vn -0.418300 0.647600 -0.636900
vn -0.518700 0.327800 -0.789600
vn -0.191600 0.327800 -0.925100
vn 0.418300 0.647600 -0.636900
vn 0.154500 0.647600 -0.746100
vn 0.191600 0.327800 -0.925100
vn 0.518700 0.327800 -0.789600
vn 0.636900 0.647600 0.418300
vn 0.746100 0.647600 0.154500
vn 0.925100 0.327800 0.191600
vn 0.789600 0.327800 0.518700
vn -0.746100 0.647600 0.154500
vn -0.636900 0.647600 0.418300
vn -0.789600 0.327800 0.518700
vn -0.925100 0.327800 0.191600
vn 0.154500 0.647600 0.746100
vn 0.418300 0.647600 0.636900
vn 0.518700 0.327800 0.789600
vn 0.191600 0.327800 0.925100
vn -0.636900 0.647600 -0.418300
vn -0.746100 0.647600 -0.154500
vn -0.925100 0.327800 -0.191600
vn -0.789600 0.327800 -0.518700
vn 0.016100 0.999700 -0.016000
vn 0.000000 0.999700 -0.022700
vn -0.016100 0.999700 -0.016000
vn -0.022700 0.999700 0.000000
vn -0.016100 0.999700 0.016000
vn 0.000000 0.999700 0.022700
vn 0.016100 0.999700 0.016100
vn 0.022700 0.999700 0.000000
vn 0.834300 0.059800 0.548000
vn 0.977500 0.059800 0.202400
vn 0.978600 0.002100 0.205800
vn 0.837500 0.002100 0.546500
vn 0.548000 0.059800 -0.834300
vn 0.202400 0.059800 -0.977500
vn 0.205800 0.002100 -0.978600
vn 0.546500 0.002100 -0.837500
vn -0.202400 0.059800 -0.977500
vn -0.548000 0.059800 -0.834300
vn -0.546500 0.002100 -0.837500
vn -0.205800 0.002100 -0.978600
vn -0.977500 0.059800 0.202400
vn -0.834300 0.059800 0.548000
vn -0.837500 0.002100 0.546500
vn -0.978600 0.002100 0.205800
vn 0.202400 0.059800 0.977500
vn 0.548000 0.059800 0.834300
vn 0.546500 0.002100 0.837500
vn 0.205800 0.002100 0.978600
vn 0.977500 0.059800 -0.202400
vn 0.834300 0.059800 -0.548000
vn 0.837500 0.002100 -0.546500
vn 0.978600 0.002100 -0.205800
vn -0.834300 0.059800 -0.548000
vn -0.977500 0.059800 -0.202400
vn -0.978600 0.002100 -0.205800
vn -0.837500 0.002100 -0.546500
vn -0.687800 0.568200 -0.451800
vn -0.805800 0.568200 -0.166900
vn -0.761000 0.629300 -0.157600
vn -0.649500 0.629300 -0.426700
vn 0.166900 0.568200 0.805800
vn 0.451800 0.568200 0.687800
vn 0.426700 0.629300 0.649500
vn 0.157600 0.629300 0.761000
vn -0.805800 0.568200 0.166900
vn -0.687800 0.568200 0.451800
vn -0.649500 0.629300 0.426700
vn -0.761000 0.629300 0.157600
vn 0.687800 0.568200 0.451800
vn 0.805800 0.568200 0.166900
vn 0.761000 0.629300 0.157600
vn 0.649500 0.629300 0.426700
vn 0.451800 0.568200 -0.687800
vn 0.166900 0.568200 -0.805800
vn 0.157600 0.629300 -0.761000
vn 0.426700 0.629300 -0.649500
vn -0.166900 0.568200 -0.805800
vn -0.451800 0.568200 -0.687800
vn -0.426700 0.629300 -0.649500
vn -0.157600 0.629300 -0.761000
vn -0.451800 0.568200 0.687800
vn -0.166900 0.568200 0.805800
vn -0.157600 0.629300 0.761000
vn -0.426700 0.629300 0.649500
vn 0.805800 0.568200 -0.166900
vn 0.687800 0.568200 -0.451800
vn 0.649500 0.629300 -0.426700
vn 0.761000 0.629300 -0.157600
vn 0.973900 0.104000 -0.201700
vn 0.831300 0.104000 -0.546000
vn 0.746500 0.449800 -0.490300
vn 0.874600 0.449800 -0.181100
vn -0.546000 0.104000 0.831300
vn -0.201700 0.104000 0.973900
vn -0.181100 0.449800 0.874600
vn -0.490300 0.449800 0.746500
vn -0.201700 0.104000 -0.973900
vn -0.546000 0.104000 -0.831300
vn -0.490300 0.449800 -0.746500
vn -0.181100 0.449800 -0.874600
vn 0.546000 0.104000 -0.831300
vn 0.201700 0.104000 -0.973900
vn 0.181100 0.449800 -0.874600
vn 0.490300 0.449800 -0.746500
vn 0.831300 0.104000 0.546000
vn 0.973900 0.104000 0.201700
vn 0.874600 0.449800 0.181100
vn 0.746500 0.449800 0.490300
vn -0.973900 0.104000 0.201700
vn -0.831300 0.104000 0.546000
vn -0.746500 0.449800 0.490300
vn -0.874600 0.449800 0.181100
vn 0.201700 0.104000 0.973900
vn 0.546000 0.104000 0.831300
vn 0.490300 0.449800 0.746500
vn 0.181100 0.449800 0.874600
vn -0.831300 0.104000 -0.546000
vn -0.973900 0.104000 -0.201700
vn -0.874600 0.449800 -0.181100
vn -0.746500 0.449800 -0.490300
usemtl Material.001
s off
f 1//1 114//1 203//1 61//1
f 1//2 61//2 180//2 60//2
f 1//3 60//3 182//3 100//3
f 1//4 100//4 204//4 114//4
f 2//5 113//5 204//5 100//5
f 2//6 100//6 182//6 64//6
f 2//7 64//7 184//7 101//7
f 2//8 101//8 205//8 113//8
f 3//9 112//9 205//9 101//9
f 3//10 101//10 184//10 67//10
f 3//11 67//11 186//11 102//11
f 3//12 102//12 206//12 112//12
f 4//13 111//13 206//13 102//13
f 4//14 102//14 186//14 70//14
f 4//15 70//15 188//15 103//15
f 4//16 103//16 207//16 111//16
f 5//17 110//17 207//17 103//17
f 5//18 103//18 188//18 73//18
f 5//19 73//19 190//19 104//19
f 5//20 104//20 208//20 110//20
f 6//21 109//21 208//21 104//21
f 6//22 104//22 190//22 76//22
f 6//23 76//23 192//23 105//23
f 6//24 105//24 209//24 109//24
f 7//25 148//25 228//25 162//25
f 7//26 162//26 227//26 123//26
f 7//27 123//27 211//27 116//27
f 7//28 116//28 213//28 148//28
f 8//29 108//29 210//29 106//29
f 8//30 106//30 194//30 82//30
f 8//31 82//31 180//31 61//31
f 8//32 61//32 203//32 108//32
f 9//33 107//33 209//33 105//33
f 9//34 105//34 192//34 79//34
f 9//35 79//35 194//35 106//35
f 9//36 106//36 210//36 107//36
f 10//37 81//37 179//37 59//37
f 10//38 59//38 181//38 63//38
f 10//39 63//39 183//39 66//39
f 10//40 66//40 185//40 69//40
f 10//41 69//41 187//41 72//41
f 10//42 72//42 189//42 75//42
f 10//43 75//43 191//43 78//43
f 10//44 78//44 193//44 81//44
f 11//45 78//45 191//45 77//45
f 11//46 77//46 201//46 91//46
f 11//47 91//47 202//47 80//47
f 11//48 80//48 193//48 78//48
f 12//49 81//49 193//49 80//49
f 12//50 80//50 202//50 92//50
f 12//51 92//51 195//51 83//51
f 12//52 83//52 179//52 81//52
f 13//53 75//53 189//53 74//53
f 13//54 74//54 200//54 93//54
f 13//55 93//55 201//55 77//55
f 13//56 77//56 191//56 75//56
f 14//57 72//57 187//57 71//57
f 14//58 71//58 199//58 94//58
f 14//59 94//59 200//59 74//59
f 14//60 74//60 189//60 72//60
f 15//61 69//61 185//61 68//61
f 15//62 68//62 198//62 95//62
f 15//63 95//63 199//63 71//63
f 15//64 71//64 187//64 69//64
f 16//65 66//65 183//65 65//65
f 16//66 65//66 197//66 96//66
f 16//67 96//67 198//67 68//67
f 16//68 68//68 185//68 66//68
f 17//69 63//69 181//69 62//69
f 17//70 62//70 196//70 97//70
f 17//71 97//71 197//71 65//71
f 17//72 65//72 183//72 63//72
f 18//73 59//73 179//73 83//73
f 18//74 83//74 195//74 98//74
f 18//75 98//75 196//75 62//75
f 18//76 62//76 181//76 59//76
f 19//77 91//77 201//77 89//77
f 19//78 89//78 209//78 107//78
f 19//79 107//79 210//79 90//79
f 19//80 90//80 202//80 91//80
f 20//81 92//81 202//81 90//81
f 20//82 90//82 210//82 108//82
f 20//83 108//83 203//83 99//83
f 20//84 99//84 195//84 92//84
f 21//85 93//85 200//85 88//85
f 21//86 88//86 208//86 109//86
f 21//87 109//87 209//87 89//87
f 21//88 89//88 201//88 93//88
f 22//89 94//89 199//89 87//89
f 22//90 87//90 207//90 110//90
f 22//91 110//91 208//91 88//91
f 22//92 88//92 200//92 94//92
f 23//93 95//93 198//93 86//93
f 23//94 86//94 206//94 111//94
f 23//95 111//95 207//95 87//95
f 23//96 87//96 199//96 95//96
f 24//97 96//97 197//97 85//97
f 24//98 85//98 205//98 112//98
f 24//99 112//99 206//99 86//99
f 24//100 86//100 198//100 96//100
f 25//101 97//101 196//101 84//101
f 25//102 84//102 204//102 113//102
f 25//103 113//103 205//103 85//103
f 25//104 85//104 197//104 97//104
f 26//105 98//105 195//105 99//105
f 26//106 99//106 203//106 114//106
f 26//107 114//107 204//107 84//107
f 26//108 84//108 196//108 98//108
f 27//109 140//109 216//109 119//109
f 27//110 119//110 215//110 139//110
f 27//111 139//111 223//111 135//111
f 27//112 135//112 224//112 140//112
f 28//113 150//113 230//113 161//113
f 28//114 161//114 229//114 125//114
f 28//115 125//115 215//115 119//115
f 28//116 119//116 216//116 150//116
f 29//117 152//117 232//117 160//117
f 29//118 160//118 231//118 127//118
f 29//119 127//119 218//119 122//119
f 29//120 122//120 212//120 152//120
f 30//121 123//121 227//121 159//121
f 30//122 159//122 232//122 152//122
f 30//123 152//123 212//123 115//123
f 30//124 115//124 211//124 123//124
f 31//125 153//125 233//125 158//125
f 31//126 158//126 228//126 148//126
f 31//127 148//127 213//127 117//127
f 31//128 117//128 214//128 153//128
f 32//129 154//129 234//129 157//129
f 32//130 157//130 230//130 150//130
f 32//131 150//131 216//131 120//131
f 32//132 120//132 217//132 154//132
f 33//133 125//133 229//133 156//133
f 33//134 156//134 233//134 153//134
f 33//135 153//135 214//135 118//135
f 33//136 118//136 215//136 125//136
f 34//137 127//137 231//137 155//137
f 34//138 155//138 234//138 154//138
f 34//139 154//139 217//139 121//139
f 34//140 121//140 218//140 127//140
f 35//141 132//141 219//141 131//141
f 35//142 131//142 220//142 138//142
f 35//143 138//143 226//143 137//143
f 35//144 137//144 225//144 136//144
f 35//145 136//145 224//145 135//145
f 35//146 135//146 223//146 134//146
f 35//147 134//147 222//147 133//147
f 35//148 133//148 221//148 132//148
f 36//149 142//149 214//149 117//149
f 36//150 117//150 213//150 141//150
f 36//151 141//151 221//151 133//151
f 36//152 133//152 222//152 142//152
f 37//153 144//153 211//153 115//153
f 37//154 115//154 212//154 143//154
f 37//155 143//155 220//155 131//155
f 37//156 131//156 219//156 144//156
f 38//157 143//157 212//157 122//157
f 38//158 122//158 218//158 145//158
f 38//159 145//159 226//159 138//159
f 38//160 138//160 220//160 143//160
f 39//161 146//161 217//161 120//161
f 39//162 120//162 216//162 140//162
f 39//163 140//163 224//163 136//163
f 39//164 136//164 225//164 146//164
f 40//165 139//165 215//165 118//165
f 40//166 118//166 214//166 142//166
f 40//167 142//167 222//167 134//167
f 40//168 134//168 223//168 139//168
f 41//169 141//169 213//169 116//169
f 41//170 116//170 211//170 144//170
f 41//171 144//171 219//171 132//171
f 41//172 132//172 221//172 141//172
f 42//173 145//173 218//173 121//173
f 42//174 121//174 217//174 146//174
f 42//175 146//175 225//175 137//175
f 42//176 137//176 226//176 145//176
f 43//177 151//177 242//177 178//177
f 43//178 178//178 239//178 167//178
f 43//179 167//179 234//179 155//179
f 43//180 155//180 231//180 151//180
f 44//181 149//181 241//181 177//181
f 44//182 177//182 238//182 166//182
f 44//183 166//183 233//183 156//183
f 44//184 156//184 229//184 149//184
f 45//185 167//185 239//185 176//185
f 45//186 176//186 236//186 164//186
f 45//187 164//187 230//187 157//187
f 45//188 157//188 234//188 167//188
f 46//189 166//189 238//189 175//189
f 46//190 175//190 235//190 163//190
f 46//191 163//191 228//191 158//191
f 46//192 158//192 233//192 166//192
f 47//193 147//193 240//193 174//193
f 47//194 174//194 237//194 165//194
f 47//195 165//195 232//195 159//195
f 47//196 159//196 227//196 147//196
f 48//197 165//197 237//197 173//197
f 48//198 173//198 242//198 151//198
f 48//199 151//199 231//199 160//199
f 48//200 160//200 232//200 165//200
f 49//201 164//201 236//201 172//201
f 49//202 172//202 241//202 149//202
f 49//203 149//203 229//203 161//203
f 49//204 161//204 230//204 164//204
f 50//205 163//205 235//205 171//205
f 50//206 171//206 240//206 147//206
f 50//207 147//207 227//207 162//207
f 50//208 162//208 228//208 163//208
f 51//209 124//209 184//209 64//209
f 51//210 64//210 182//210 168//210
f 51//211 168//211 240//211 171//211
f 51//212 171//212 235//212 124//212
f 52//213 126//213 190//213 73//213
f 52//214 73//214 188//214 169//214
f 52//215 169//215 241//215 172//215
f 52//216 172//216 236//216 126//216
f 53//217 128//217 180//217 82//217
f 53//218 82//218 194//218 170//218
f 53//219 170//219 242//219 173//219
f 53//220 173//220 237//220 128//220
f 54//221 168//221 182//221 60//221
f 54//222 60//222 180//222 128//222
f 54//223 128//223 237//223 174//223
f 54//224 174//224 240//224 168//224
f 55//225 129//225 186//225 67//225
f 55//226 67//226 184//226 124//226
f 55//227 124//227 235//227 175//227
f 55//228 175//228 238//228 129//228
f 56//229 130//229 192//229 76//229
f 56//230 76//230 190//230 126//230
f 56//231 126//231 236//231 176//231
f 56//232 176//232 239//232 130//232
f 57//233 169//233 188//233 70//233
f 57//234 70//234 186//234 129//234
f 57//235 129//235 238//235 177//235
f 57//236 177//236 241//236 169//236
f 58//237 170//237 194//237 79//237
f 58//238 79//238 192//238 130//238
f 58//239 130//239 239//239 178//239
f 58//240 178//240 242//240 170//240
