# Blender v2.76 (sub 0) OBJ File: 'etagere.blend'
# www.blender.org
mtllib etagère.mtl
o Cube.001_Cube.002
v -4.173075 1.584758 1.331194
v -4.239246 1.811104 1.352599
v -4.172948 1.584708 -1.334266
v -4.239128 1.811053 -1.355419
v 4.049665 1.584304 1.330817
v 4.114866 1.810629 1.352247
v 4.049343 1.584177 -1.333830
v 4.114564 1.810495 -1.355011
v -4.726091 3.612774 1.510086
v -4.779888 3.889620 1.527489
v -4.726031 3.612728 -1.511048
v -4.779836 3.889578 -1.528246
v 4.594552 3.612347 1.509908
v 4.647633 3.889163 1.527354
v 4.594399 3.612226 -1.510841
v 4.647501 3.889052 -1.528087
v -4.762893 5.699550 1.521991
v -4.715640 5.957696 1.506705
v -4.762845 5.699585 -1.522815
v -4.715586 5.957733 -1.507710
v 4.630884 5.699873 1.521849
v 4.584323 5.958036 1.506546
v 4.630763 5.699965 -1.522651
v 4.584187 5.958132 -1.507525
v -4.353189 7.730212 1.389458
v -4.312019 7.948191 1.376140
v -4.353092 7.730246 -1.391846
v -4.311916 7.948221 -1.378684
v 4.227202 7.730515 1.389169
v 4.186629 7.948466 1.375834
v 4.226954 7.730600 -1.391511
v 4.186366 7.948545 -1.378329
v 3.412380 -0.029447 -0.902805
v 3.696462 9.194195 -0.976555
v 3.412380 -0.029447 -1.182114
v 3.696462 9.194195 -1.278924
v 3.691689 -0.029447 -0.902805
v 3.998831 9.194195 -0.976555
v 3.691689 -0.029447 -1.182114
v 3.998831 9.194195 -1.278924
v 3.412380 -0.029447 1.155872
v 3.696462 9.194195 1.252092
v 3.412380 -0.029447 0.876563
v 3.696462 9.194195 0.949722
v 3.691689 -0.029447 1.155872
v 3.998831 9.194195 1.252092
v 3.691689 -0.029447 0.876563
v 3.998831 9.194195 0.949722
v -3.748508 -0.029447 1.155872
v -4.055650 9.194195 1.252092
v -3.748508 -0.029447 0.876563
v -4.055650 9.194195 0.949722
v -3.469199 -0.029447 1.155872
v -3.753281 9.194195 1.252092
v -3.469199 -0.029447 0.876563
v -3.753281 9.194195 0.949722
v -3.748508 -0.029447 -0.888503
v -4.055650 9.194195 -0.961072
v -3.748508 -0.029447 -1.167811
v -4.055650 9.194195 -1.263441
v -3.469199 -0.029447 -0.888503
v -3.753281 9.194195 -0.961072
v -3.469199 -0.029447 -1.167811
v -3.753281 9.194195 -1.263441
v -4.378654 2.752326 -1.037389
v -4.507905 6.329772 -1.067927
v -4.507905 6.329772 -1.404252
v -4.378654 2.752326 -1.364009
v -4.171580 6.329772 -1.404252
v -4.052032 2.752326 -1.364009
v -4.171580 6.329772 -1.067927
v -4.052032 2.752326 -1.037389
v 3.995214 2.752326 -1.054113
v 4.114761 6.329772 -1.085149
v 4.114761 6.329772 -1.421474
v 3.995214 2.752326 -1.380734
v 4.451087 6.329772 -1.421474
v 4.321835 2.752326 -1.380734
v 4.451087 6.329772 -1.085149
v 4.321835 2.752326 -1.054113
v 3.995214 2.752326 1.353281
v 4.114761 6.329772 1.393772
v 4.114761 6.329772 1.057447
v 3.995214 2.752326 1.026660
v 4.451087 6.329772 1.057447
v 4.321835 2.752326 1.026660
v 4.451087 6.329772 1.393772
v 4.321835 2.752326 1.353281
v -4.378654 2.752326 1.353281
v -4.507905 6.329772 1.393772
v -4.507905 6.329772 1.057447
v -4.378654 2.752326 1.026660
v -4.171580 6.329772 1.057447
v -4.052032 2.752326 1.026660
v -4.171580 6.329772 1.393772
v -4.052032 2.752326 1.353281
vn -0.959800 -0.280600 -0.000000
vn 0.000000 -0.093100 -0.995700
vn 0.960900 -0.276900 -0.000100
vn 0.000000 -0.094200 0.995600
vn -0.000100 -1.000000 0.000000
vn 0.000100 1.000000 -0.000000
vn -0.981600 -0.190800 -0.000000
vn 0.000000 -0.062100 -0.998100
vn 0.982100 -0.188400 -0.000000
vn 0.000000 -0.062800 0.998000
vn -0.000000 -1.000000 0.000000
vn -0.983700 0.180100 -0.000000
vn 0.000000 0.058500 -0.998300
vn 0.984100 0.177500 -0.000000
vn 0.000000 0.059100 0.998200
vn -0.000000 1.000000 0.000000
vn -0.982600 0.185600 -0.000000
vn 0.000000 0.060300 -0.998200
vn 0.983100 0.183100 -0.000100
vn 0.000000 0.061000 0.998100
vn -0.978700 0.205100 0.000000
vn 0.000000 -0.071200 -0.997500
vn 0.975300 -0.220900 0.000000
vn 0.000000 0.054300 0.998500
vn 0.000000 0.053900 -0.998500
vn 0.000000 -0.070800 0.997500
vn -0.975300 -0.220900 0.000000
vn 0.978700 0.205100 0.000000
vn 0.000000 -0.070400 -0.997500
vn 0.000000 0.053400 0.998600
vn 0.000000 -0.037300 0.999300
vn 0.000000 0.008500 1.000000
vn 0.989500 -0.144500 0.000000
vn 0.999400 0.033400 0.000000
vn 0.000000 0.049100 -0.998800
vn 0.000000 -0.011200 -0.999900
vn -0.987800 0.156000 0.000000
vn -0.999300 -0.036100 0.000000
vn 0.000000 -0.037900 0.999300
vn 0.000000 0.008700 1.000000
vn 0.987800 0.156000 0.000000
vn 0.999300 -0.036100 0.000000
vn 0.000000 0.049700 -0.998800
vn 0.000000 -0.011400 -0.999900
vn -0.989500 -0.144500 0.000000
vn -0.999400 0.033400 0.000000
vn 0.000000 0.049400 0.998800
vn 0.000000 -0.011300 0.999900
vn 0.000000 -0.037600 -0.999300
vn 0.000000 0.008600 -1.000000
usemtl None
s off
f 2//1 4//1 3//1 1//1
f 4//2 8//2 7//2 3//2
f 8//3 6//3 5//3 7//3
f 6//4 2//4 1//4 5//4
f 1//5 3//5 7//5 5//5
f 6//6 8//6 4//6 2//6
f 10//7 12//7 11//7 9//7
f 12//8 16//8 15//8 11//8
f 16//9 14//9 13//9 15//9
f 14//10 10//10 9//10 13//10
f 9//11 11//11 15//11 13//11
f 14//6 16//6 12//6 10//6
f 18//12 20//12 19//12 17//12
f 20//13 24//13 23//13 19//13
f 24//14 22//14 21//14 23//14
f 22//15 18//15 17//15 21//15
f 17//11 19//11 23//11 21//11
f 22//16 24//16 20//16 18//16
f 26//17 28//17 27//17 25//17
f 28//18 32//18 31//18 27//18
f 32//19 30//19 29//19 31//19
f 30//20 26//20 25//20 29//20
f 25//11 27//11 31//11 29//11
f 30//16 32//16 28//16 26//16
f 73//21 76//21 35//21 33//21
f 76//22 78//22 39//22 35//22
f 78//23 80//23 37//23 39//23
f 80//24 73//24 33//24 37//24
f 33//11 35//11 39//11 37//11
f 38//16 40//16 36//16 34//16
f 81//21 84//21 43//21 41//21
f 84//25 86//25 47//25 43//25
f 86//23 88//23 45//23 47//23
f 88//26 81//26 41//26 45//26
f 41//11 43//11 47//11 45//11
f 46//16 48//16 44//16 42//16
f 89//27 92//27 51//27 49//27
f 92//25 94//25 55//25 51//25
f 94//28 96//28 53//28 55//28
f 96//26 89//26 49//26 53//26
f 49//11 51//11 55//11 53//11
f 54//16 56//16 52//16 50//16
f 65//27 68//27 59//27 57//27
f 68//29 70//29 63//29 59//29
f 70//28 72//28 61//28 63//28
f 72//30 65//30 57//30 61//30
f 57//11 59//11 63//11 61//11
f 62//16 64//16 60//16 58//16
f 62//31 58//31 66//31 71//31
f 71//32 66//32 65//32 72//32
f 64//33 62//33 71//33 69//33
f 69//34 71//34 72//34 70//34
f 60//35 64//35 69//35 67//35
f 67//36 69//36 70//36 68//36
f 58//37 60//37 67//37 66//37
f 66//38 67//38 68//38 65//38
f 38//39 34//39 74//39 79//39
f 79//40 74//40 73//40 80//40
f 40//41 38//41 79//41 77//41
f 77//42 79//42 80//42 78//42
f 36//43 40//43 77//43 75//43
f 75//44 77//44 78//44 76//44
f 34//45 36//45 75//45 74//45
f 74//46 75//46 76//46 73//46
f 46//47 42//47 82//47 87//47
f 87//48 82//48 81//48 88//48
f 48//41 46//41 87//41 85//41
f 85//42 87//42 88//42 86//42
f 44//49 48//49 85//49 83//49
f 83//50 85//50 86//50 84//50
f 42//45 44//45 83//45 82//45
f 82//46 83//46 84//46 81//46
f 54//47 50//47 90//47 95//47
f 95//48 90//48 89//48 96//48
f 56//33 54//33 95//33 93//33
f 93//34 95//34 96//34 94//34
f 52//49 56//49 93//49 91//49
f 91//50 93//50 94//50 92//50
f 50//37 52//37 91//37 90//37
f 90//38 91//38 92//38 89//38
