# Blender v2.76 (sub 0) OBJ File: "l'amicroondes.blend"
# www.blender.org
mtllib l'amicroondes.mtl
o Cylinder_Cylinder.001
v 1.012320 -0.292904 -1.260327
v 0.960972 0.717289 -1.260327
v 1.038474 -0.292904 -1.245227
v 0.987126 0.717289 -1.245227
v 1.038474 -0.292904 -1.215027
v 0.987126 0.717289 -1.215027
v 1.012320 -0.292904 -1.199928
v 0.960972 0.717289 -1.199928
v 0.986167 -0.292904 -1.215027
v 0.934819 0.717289 -1.215027
v 0.986167 -0.292904 -1.245227
v 0.934819 0.717289 -1.245227
v 1.061306 -0.180660 -1.260327
v 1.102730 -0.068416 -1.260327
v 1.131397 0.043827 -1.260327
v 1.142107 0.156071 -1.260327
v 1.131397 0.268315 -1.260327
v 1.102730 0.380558 -1.260327
v 1.061306 0.492802 -1.260327
v 1.012320 0.605045 -1.260327
v 1.038474 0.605045 -1.245227
v 1.087459 0.492802 -1.245227
v 1.128884 0.380558 -1.245227
v 1.157550 0.268314 -1.245227
v 1.168261 0.156071 -1.245227
v 1.157550 0.043827 -1.245227
v 1.128884 -0.068416 -1.245227
v 1.087459 -0.180660 -1.245227
v 1.038474 0.605045 -1.215027
v 1.087459 0.492802 -1.215027
v 1.128884 0.380558 -1.215027
v 1.157550 0.268314 -1.215027
v 1.168261 0.156071 -1.215027
v 1.157550 0.043827 -1.215027
v 1.128884 -0.068416 -1.215027
v 1.087459 -0.180660 -1.215027
v 1.012320 0.605045 -1.199928
v 1.061306 0.492802 -1.199928
v 1.102730 0.380558 -1.199928
v 1.131397 0.268314 -1.199928
v 1.142107 0.156071 -1.199928
v 1.131397 0.043827 -1.199928
v 1.102730 -0.068416 -1.199928
v 1.061306 -0.180660 -1.199928
v 0.986167 0.605045 -1.215027
v 1.035152 0.492802 -1.215027
v 1.076577 0.380558 -1.215027
v 1.105243 0.268314 -1.215027
v 1.115954 0.156071 -1.215027
v 1.105243 0.043827 -1.215027
v 1.076577 -0.068416 -1.215027
v 1.035152 -0.180660 -1.215027
v 0.986167 0.605045 -1.245227
v 1.035152 0.492802 -1.245227
v 1.076577 0.380558 -1.245227
v 1.105243 0.268314 -1.245227
v 1.115954 0.156071 -1.245227
v 1.105243 0.043827 -1.245227
v 1.076577 -0.068416 -1.245227
v 1.035152 -0.180660 -1.245227
vn 0.487400 0.223000 -0.844200
vn 0.909400 0.416000 0.000000
vn 0.487400 0.223000 0.844200
vn -0.487400 -0.223000 0.844200
vn 0.000000 1.000000 0.000000
vn -0.487400 -0.223000 -0.844200
vn -0.909400 -0.416000 0.000000
vn 0.000000 -1.000000 0.000000
vn -0.916500 0.400000 0.000000
vn -0.938100 0.346200 0.000000
vn -0.968900 0.247500 0.000000
vn -0.995500 0.095000 0.000000
vn -0.995500 -0.095000 0.000000
vn -0.968900 -0.247500 0.000000
vn -0.938100 -0.346200 0.000000
vn -0.916500 -0.400000 0.000000
vn -0.488500 0.213200 -0.846100
vn -0.491700 0.181500 -0.851600
vn -0.496000 0.126700 -0.859100
vn -0.499400 0.047700 -0.865000
vn -0.499400 -0.047700 -0.865000
vn -0.496000 -0.126700 -0.859000
vn -0.491700 -0.181500 -0.851600
vn -0.488500 -0.213200 -0.846100
vn -0.488500 0.213200 0.846100
vn -0.491700 0.181500 0.851600
vn -0.496000 0.126700 0.859100
vn -0.499400 0.047700 0.865000
vn -0.499400 -0.047700 0.865000
vn -0.496000 -0.126700 0.859100
vn -0.491700 -0.181500 0.851600
vn -0.488500 -0.213200 0.846100
vn 0.488500 -0.213200 0.846100
vn 0.491700 -0.181500 0.851700
vn 0.496000 -0.126700 0.859100
vn 0.499400 -0.047700 0.865000
vn 0.499400 0.047700 0.865000
vn 0.496000 0.126700 0.859100
vn 0.491700 0.181500 0.851700
vn 0.488500 0.213200 0.846100
vn 0.916500 -0.400000 0.000000
vn 0.938100 -0.346200 0.000000
vn 0.968900 -0.247500 0.000000
vn 0.995500 -0.095000 0.000000
vn 0.995500 0.095000 0.000000
vn 0.968900 0.247500 0.000000
vn 0.938100 0.346200 0.000000
vn 0.916500 0.400000 0.000000
vn 0.488500 -0.213200 -0.846100
vn 0.491700 -0.181500 -0.851700
vn 0.496000 -0.126700 -0.859100
vn 0.499400 -0.047700 -0.865000
vn 0.499400 0.047700 -0.865000
vn 0.496000 0.126700 -0.859100
vn 0.491700 0.181500 -0.851700
vn 0.488500 0.213200 -0.846100
usemtl None
s off
f 20//1 2//1 4//1 21//1
f 21//2 4//2 6//2 29//2
f 29//3 6//3 8//3 37//3
f 37//4 8//4 10//4 45//4
f 4//5 2//5 12//5 10//5 8//5 6//5
f 53//6 12//6 2//6 20//6
f 45//7 10//7 12//7 53//7
f 1//8 3//8 5//8 7//8 9//8 11//8
f 9//9 52//9 60//9 11//9
f 52//10 51//10 59//10 60//10
f 51//11 50//11 58//11 59//11
f 50//12 49//12 57//12 58//12
f 49//13 48//13 56//13 57//13
f 48//14 47//14 55//14 56//14
f 47//15 46//15 54//15 55//15
f 46//16 45//16 53//16 54//16
f 11//17 60//17 13//17 1//17
f 60//18 59//18 14//18 13//18
f 59//19 58//19 15//19 14//19
f 58//20 57//20 16//20 15//20
f 57//21 56//21 17//21 16//21
f 56//22 55//22 18//22 17//22
f 55//23 54//23 19//23 18//23
f 54//24 53//24 20//24 19//24
f 7//25 44//25 52//25 9//25
f 44//26 43//26 51//26 52//26
f 43//27 42//27 50//27 51//27
f 42//28 41//28 49//28 50//28
f 41//29 40//29 48//29 49//29
f 40//30 39//30 47//30 48//30
f 39//31 38//31 46//31 47//31
f 38//32 37//32 45//32 46//32
f 5//33 36//33 44//33 7//33
f 36//34 35//34 43//34 44//34
f 35//35 34//35 42//35 43//35
f 34//36 33//36 41//36 42//36
f 33//37 32//37 40//37 41//37
f 32//38 31//38 39//38 40//38
f 31//39 30//39 38//39 39//39
f 30//40 29//40 37//40 38//40
f 3//41 28//41 36//41 5//41
f 28//42 27//42 35//42 36//42
f 27//43 26//43 34//43 35//43
f 26//44 25//44 33//44 34//44
f 25//45 24//45 32//45 33//45
f 24//46 23//46 31//46 32//46
f 23//47 22//47 30//47 31//47
f 22//48 21//48 29//48 30//48
f 1//49 13//49 28//49 3//49
f 13//50 14//50 27//50 28//50
f 14//51 15//51 26//51 27//51
f 15//52 16//52 25//52 26//52
f 16//53 17//53 24//53 25//53
f 17//54 18//54 23//54 24//54
f 18//55 19//55 22//55 23//55
f 19//56 20//56 21//56 22//56
o Cube.003
v 1.095933 0.328883 -1.408943
v 1.095933 -0.436363 -1.408943
v 1.095933 0.328883 -2.057606
v 1.095933 -0.436363 -2.057606
v 0.745685 0.328883 -1.408943
v 0.745685 -0.436363 -1.408943
v 0.745685 0.328883 -2.057606
v 0.745685 -0.436363 -2.057606
v 1.095933 0.307474 -1.408943
v 1.095933 0.090157 -1.408943
v 1.095933 -0.205333 -1.408943
v 1.095933 -0.384198 -1.408943
v 1.095933 -0.384198 -2.057606
v 1.095933 -0.205333 -2.057606
v 1.095933 0.090157 -2.057606
v 1.095933 0.307474 -2.057606
v 0.745685 -0.283314 -2.057606
v 0.745685 -0.130264 -2.057606
v 0.745685 0.022785 -2.057606
v 0.745685 0.175834 -2.057606
v 0.745685 -0.283314 -1.408943
v 0.745685 -0.130264 -1.408943
v 0.745685 0.022785 -1.408943
v 0.745685 0.175834 -1.408943
v 1.095933 -0.436363 -1.432304
v 1.095933 0.328883 -1.432304
v 0.745685 -0.436363 -1.432304
v 0.745685 0.328883 -1.432304
v 0.745685 -0.283314 -1.432304
v 0.745685 -0.130264 -1.432304
v 0.745685 0.022785 -1.432304
v 0.745685 0.175834 -1.432304
v 1.095933 -0.384198 -1.432304
v 1.095933 -0.205333 -1.432304
v 1.095933 0.090157 -1.432304
v 1.095933 0.307474 -1.432304
v 1.095933 -0.436363 -2.029922
v 0.745685 0.328883 -2.029922
v 0.745685 -0.283314 -2.029922
v 0.745685 -0.130264 -2.029922
v 0.745685 0.022785 -2.029922
v 0.745685 0.175834 -2.029922
v 1.095933 0.328883 -2.029922
v 0.745685 -0.436363 -2.029922
v 1.095933 -0.384198 -2.029922
v 1.095933 -0.205333 -2.029922
v 1.095933 0.090157 -2.029922
v 1.095933 0.307474 -2.029922
v 1.095933 0.328883 -1.622647
v 0.745685 -0.436363 -1.622647
v 1.095933 -0.384198 -1.622647
v 1.095933 -0.205333 -1.622647
v 1.095933 0.090157 -1.622647
v 1.095933 0.307474 -1.622647
v 1.095933 -0.436363 -1.622647
v 0.745685 0.328883 -1.622647
v 0.745685 -0.283314 -1.622647
v 0.745685 -0.130264 -1.622647
v 0.745685 0.022785 -1.622647
v 0.745685 0.175834 -1.622647
v 1.095933 -0.436363 -1.839468
v 0.745685 0.328883 -1.839468
v 0.745685 -0.283314 -1.839468
v 0.745685 -0.130264 -1.839468
v 0.745685 0.022785 -1.839468
v 0.745685 0.175834 -1.839468
v 1.095933 0.328883 -1.839468
v 0.745685 -0.436363 -1.839468
v 1.095933 -0.384198 -1.839468
v 1.095933 -0.205333 -1.839468
v 1.095933 0.090157 -1.839468
v 1.095933 0.307474 -1.839468
v 1.095933 0.328883 -1.614371
v 0.745685 -0.436363 -1.614371
v 1.095933 -0.384198 -1.614371
v 1.095933 -0.205333 -1.614371
v 1.095933 0.090157 -1.614371
v 1.095933 0.307474 -1.614371
v 1.095933 -0.436363 -1.614371
v 0.745685 0.328883 -1.614371
v 0.745685 -0.283314 -1.614371
v 0.745685 -0.130264 -1.614371
v 0.745685 0.022785 -1.614371
v 0.745685 0.175834 -1.614371
v 1.095933 0.328883 -1.828205
v 0.745685 -0.436363 -1.828205
v 1.095933 -0.384198 -1.828205
v 1.095933 -0.205333 -1.828205
v 1.095933 0.090157 -1.828205
v 1.095933 0.307474 -1.828205
v 1.095933 -0.436363 -1.828205
v 0.745685 0.328883 -1.828205
v 0.745685 -0.283314 -1.828205
v 0.745685 -0.130264 -1.828205
v 0.745685 0.022785 -1.828205
v 0.745685 0.175834 -1.828205
v 1.095933 -0.436363 -2.022816
v 0.745685 0.328883 -2.022816
v 0.745685 -0.283314 -2.022816
v 0.745685 -0.130264 -2.022816
v 0.745685 0.022785 -2.022816
v 0.745685 0.175834 -2.022816
v 1.095933 0.328883 -2.022816
v 0.745685 -0.436363 -2.022816
v 1.095933 -0.384198 -2.022816
v 1.095933 -0.205333 -2.022816
v 1.095933 0.090157 -2.022816
v 1.095933 0.307474 -2.022816
v 1.095933 0.080408 -1.408943
v 1.095933 0.080408 -2.057606
v 0.745685 0.017736 -2.057606
v 0.745685 0.017736 -1.408943
v 1.095933 0.080408 -1.432304
v 0.745685 0.017736 -1.432304
v 0.745685 0.017736 -2.029922
v 1.095933 0.080408 -2.029922
v 1.095933 0.080408 -1.622647
v 0.745685 0.017736 -1.622647
v 0.745685 0.017736 -1.839468
v 1.095933 0.080408 -1.839468
v 1.095933 0.080408 -1.614371
v 0.745685 0.017736 -1.614371
v 1.095933 0.080408 -1.828205
v 0.745685 0.017736 -1.828205
v 0.745685 0.017736 -2.022816
v 1.095933 0.080408 -2.022816
v 1.095933 -0.195144 -1.408943
v 1.095933 -0.195144 -2.057606
v 0.745685 -0.124987 -2.057606
v 0.745685 -0.124987 -1.408943
v 1.095933 -0.195144 -1.432304
v 0.745685 -0.124987 -1.432304
v 0.745685 -0.124987 -2.029922
v 1.095933 -0.195144 -2.029922
v 1.095933 -0.195144 -1.622647
v 0.745685 -0.124987 -1.622647
v 0.745685 -0.124987 -1.839468
v 1.095933 -0.195144 -1.839468
v 1.095933 -0.195144 -1.614371
v 0.745685 -0.124987 -1.614371
v 1.095933 -0.195144 -1.828205
v 0.745685 -0.124987 -1.828205
v 0.745685 -0.124987 -2.022816
v 1.095933 -0.195144 -2.022816
v 1.095933 -0.378241 -1.408943
v 1.095933 -0.378241 -2.057606
v 0.745685 -0.278217 -2.057606
v 0.745685 -0.278217 -1.408943
v 1.095933 -0.378241 -1.432304
v 0.745685 -0.278217 -1.432304
v 0.745685 -0.278217 -2.029922
v 1.095933 -0.378241 -2.029922
v 1.095933 -0.378241 -1.622647
v 0.745685 -0.278217 -1.622647
v 0.745685 -0.278217 -1.839468
v 1.095933 -0.378241 -1.839468
v 1.095933 -0.378241 -1.614371
v 0.745685 -0.278217 -1.614371
v 1.095933 -0.378241 -1.828205
v 0.745685 -0.278217 -1.828205
v 0.745685 -0.278217 -2.022816
v 1.095933 -0.378241 -2.022816
v 1.114033 -0.211456 -1.604723
v 1.111231 -0.205333 -1.614371
v 1.111231 -0.205333 -1.432304
v 1.114033 -0.211456 -1.441952
v 1.111231 0.090157 -1.614371
v 1.114033 0.096280 -1.604723
v 1.114033 0.096280 -1.441952
v 1.111231 0.090157 -1.432304
v 1.114033 0.301351 -1.604723
v 1.111231 0.307474 -1.614371
v 1.111231 0.307474 -1.432304
v 1.114033 0.301351 -1.441952
v 1.111231 -0.378241 -1.432304
v 1.114033 -0.372119 -1.441952
v 1.114033 -0.211456 -1.818557
v 1.111231 -0.205333 -1.828205
v 1.111231 -0.205333 -1.622647
v 1.114033 -0.211456 -1.632295
v 1.111231 0.090157 -1.828205
v 1.114033 0.096280 -1.818557
v 1.114033 0.096280 -1.632295
v 1.111231 0.090157 -1.622647
v 1.114033 0.301351 -1.818557
v 1.111231 0.307474 -1.828205
v 1.111231 0.307474 -1.622647
v 1.114033 0.301351 -1.632295
v 1.111231 -0.378241 -1.622647
v 1.114033 -0.372119 -1.632295
v 1.114033 -0.211456 -2.013168
v 1.111231 -0.205333 -2.022816
v 1.111231 -0.205333 -1.839468
v 1.114033 -0.211456 -1.849117
v 1.111231 0.090157 -2.022816
v 1.114033 0.096280 -2.013168
v 1.114033 0.096280 -1.849117
v 1.111231 0.090157 -1.839468
v 1.114033 0.301351 -2.013168
v 1.111231 0.307474 -2.022816
v 1.111231 0.307474 -1.839468
v 1.114033 0.301351 -1.849117
v 1.111231 -0.378241 -1.839468
v 1.114033 -0.372119 -1.849117
v 1.114033 -0.372119 -1.604723
v 1.111231 -0.378241 -1.614371
v 1.114033 -0.372119 -1.818557
v 1.111231 -0.378241 -1.828205
v 1.114033 -0.372119 -2.013168
v 1.111231 -0.378241 -2.022816
v 1.111231 -0.195144 -1.432304
v 1.114033 -0.189022 -1.441952
v 1.114033 0.074286 -1.441952
v 1.111231 0.080408 -1.432304
v 1.111231 -0.195144 -1.622647
v 1.114033 -0.189022 -1.632295
v 1.114033 0.074286 -1.632295
v 1.111231 0.080408 -1.622647
v 1.111231 -0.195144 -1.839468
v 1.114033 -0.189022 -1.849117
v 1.114033 0.074286 -1.849117
v 1.111231 0.080408 -1.839468
v 1.114033 -0.189022 -1.604723
v 1.111231 -0.195144 -1.614371
v 1.111231 0.080408 -1.614371
v 1.114033 0.074286 -1.604723
v 1.114033 -0.189022 -1.818557
v 1.111231 -0.195144 -1.828205
v 1.111231 0.080408 -1.828205
v 1.114033 0.074286 -1.818557
v 1.114033 -0.189022 -2.013168
v 1.111231 -0.195144 -2.022816
v 1.111231 0.080408 -2.022816
v 1.114033 0.074286 -2.013168
vn 1.000000 0.000000 0.000000
vn -0.000000 0.000000 -1.000000
vn -1.000000 0.000000 0.000000
vn 0.000000 0.000000 1.000000
vn 0.000000 1.000000 0.000000
vn 0.000000 -1.000000 0.000000
vn 0.909300 0.416200 0.000000
vn 0.909300 -0.416200 0.000000
vn 0.960300 0.000000 0.278900
vn 0.960300 0.000000 -0.278900
usemtl None
s off
f 108//57 76//57 63//57 103//57
f 76//58 80//58 67//58 63//58
f 92//59 84//59 65//59 88//59
f 84//60 69//60 61//60 65//60
f 103//61 63//61 67//61 98//61
f 104//62 68//62 64//62 97//62
f 66//60 62//60 72//60 81//60
f 208//60 205//60 71//60 82//60
f 172//60 169//60 70//60 83//60
f 83//60 70//60 69//60 84//60
f 87//59 66//59 81//59 89//59
f 210//59 208//59 82//59 90//59
f 174//59 172//59 83//59 91//59
f 91//59 83//59 84//59 92//59
f 64//58 68//58 77//58 73//58
f 206//58 207//58 78//58 74//58
f 170//58 171//58 79//58 75//58
f 75//58 79//58 80//58 76//58
f 97//57 64//57 73//57 105//57
f 212//57 206//57 74//57 106//57
f 176//57 170//57 75//57 107//57
f 107//57 75//57 76//57 108//57
f 70//57 95//57 96//57 69//57
f 169//57 173//57 95//57 70//57
f 205//57 209//57 94//57 71//57
f 62//57 85//57 93//57 72//57
f 143//59 91//59 92//59 144//59
f 182//59 174//59 91//59 143//59
f 218//59 210//59 90//59 142//59
f 134//59 87//59 89//59 141//59
f 66//62 87//62 85//62 62//62
f 61//61 86//61 88//61 65//61
f 144//59 92//59 88//59 140//59
f 69//57 96//57 86//57 61//57
f 80//59 102//59 98//59 67//59
f 68//59 104//59 99//59 77//59
f 207//59 211//59 100//59 78//59
f 171//59 175//59 101//59 79//59
f 79//59 101//59 102//59 80//59
f 167//57 107//57 108//57 168//57
f 186//57 176//57 107//57 167//57
f 222//57 212//57 106//57 166//57
f 157//57 97//57 105//57 165//57
f 164//62 104//62 97//62 157//62
f 163//61 103//61 98//61 158//61
f 168//57 108//57 103//57 163//57
f 138//57 114//57 109//57 133//57
f 133//61 109//61 116//61 140//61
f 134//62 110//62 115//62 139//62
f 139//57 115//57 111//57 135//57
f 217//57 213//57 112//57 136//57
f 181//57 177//57 113//57 137//57
f 137//57 113//57 114//57 138//57
f 156//59 120//59 116//59 152//59
f 146//59 110//59 117//59 153//59
f 220//59 214//59 118//59 154//59
f 184//59 178//59 119//59 155//59
f 155//59 119//59 120//59 156//59
f 161//59 125//59 126//59 162//59
f 185//59 179//59 125//59 161//59
f 221//59 215//59 124//59 160//59
f 164//59 128//59 123//59 159//59
f 162//59 126//59 122//59 158//59
f 150//57 132//57 127//57 145//57
f 145//61 127//61 122//61 152//61
f 146//62 128//62 121//62 151//62
f 151//57 121//57 129//57 147//57
f 219//57 216//57 130//57 148//57
f 183//57 180//57 131//57 149//57
f 149//57 131//57 132//57 150//57
f 216//62 222//62 270//62 263//62
f 173//57 181//57 137//57 95//57
f 276//57 287//57 290//57 277//57
f 85//57 139//57 135//57 93//57
f 87//62 134//62 139//62 85//62
f 86//61 133//61 140//61 88//61
f 96//57 138//57 133//57 86//57
f 120//59 144//59 140//59 116//59
f 110//59 134//59 141//59 117//59
f 214//59 218//59 142//59 118//59
f 178//59 182//59 143//59 119//59
f 119//59 143//59 144//59 120//59
f 257//57 256//57 259//57 262//57
f 177//57 183//57 149//57 113//57
f 180//60 198//60 279//60 282//60
f 115//57 151//57 147//57 111//57
f 110//62 146//62 151//62 115//62
f 109//61 145//61 152//61 116//61
f 114//57 150//57 145//57 109//57
f 125//59 155//59 156//59 126//59
f 179//59 184//59 155//59 125//59
f 215//59 220//59 154//59 124//59
f 128//59 146//59 153//59 123//59
f 126//59 156//59 152//59 122//59
f 102//59 162//59 158//59 98//59
f 104//59 164//59 159//59 99//59
f 211//59 221//59 160//59 100//59
f 175//59 185//59 161//59 101//59
f 101//59 161//59 162//59 102//59
f 132//57 168//57 163//57 127//57
f 127//61 163//61 158//61 122//61
f 128//62 164//62 157//62 121//62
f 121//57 157//57 165//57 129//57
f 168//61 132//61 261//61 260//61
f 180//57 186//57 167//57 131//57
f 96//60 95//60 230//60 233//60
f 130//60 216//60 263//60 253//60
f 193//59 203//59 185//59 175//59
f 197//59 202//59 184//59 179//59
f 95//62 137//62 227//62 230//62
f 196//59 200//59 182//59 178//59
f 148//61 112//61 239//61 238//61
f 201//57 198//57 180//57 183//57
f 203//59 197//59 179//59 185//59
f 202//59 196//59 178//59 184//59
f 199//57 195//57 177//57 181//57
f 204//57 194//57 176//57 186//57
f 189//59 193//59 175//59 171//59
f 200//59 192//59 174//59 182//59
f 187//57 191//57 173//57 169//57
f 194//57 188//57 170//57 176//57
f 188//58 189//58 171//58 170//58
f 192//59 190//59 172//59 174//59
f 190//60 187//60 169//60 172//60
f 82//60 71//60 187//60 190//60
f 90//59 82//59 190//59 192//59
f 74//58 78//58 189//58 188//58
f 106//57 74//57 188//57 194//57
f 71//57 94//57 191//57 187//57
f 142//59 90//59 192//59 200//59
f 78//59 100//59 193//59 189//59
f 166//57 106//57 194//57 204//57
f 136//57 112//57 195//57 199//57
f 154//59 118//59 196//59 202//59
f 160//59 124//59 197//59 203//59
f 148//57 130//57 198//57 201//57
f 94//57 136//57 199//57 191//57
f 118//59 142//59 200//59 196//59
f 112//57 148//57 201//57 195//57
f 124//59 154//59 202//59 197//59
f 100//59 160//59 203//59 193//59
f 130//57 166//57 204//57 198//57
f 129//57 165//57 222//57 216//57
f 99//59 159//59 221//59 211//59
f 123//59 153//59 220//59 215//59
f 111//57 147//57 219//57 213//57
f 117//59 141//59 218//59 214//59
f 93//57 135//57 217//57 209//57
f 147//57 129//57 216//57 219//57
f 159//59 123//59 215//59 221//59
f 153//59 117//59 214//59 220//59
f 135//57 111//57 213//57 217//57
f 165//57 105//57 212//57 222//57
f 77//59 99//59 211//59 207//59
f 141//59 89//59 210//59 218//59
f 72//57 93//57 209//57 205//57
f 105//57 73//57 206//57 212//57
f 73//58 77//58 207//58 206//58
f 89//59 81//59 208//59 210//59
f 81//60 72//60 205//60 208//60
f 137//58 138//58 232//58 227//58
f 217//58 136//58 224//58 266//58
f 149//58 150//58 246//58 241//58
f 219//58 148//58 238//58 268//58
f 222//58 166//58 252//58 270//58
f 167//58 168//58 260//58 255//58
f 198//62 204//62 292//62 279//62
f 195//62 201//62 288//62 275//62
f 191//62 199//62 284//62 271//62
f 136//61 94//61 225//61 224//61
f 173//60 191//60 271//60 274//60
f 177//60 195//60 275//60 278//60
f 166//61 130//61 253//61 252//61
f 280//57 291//57 294//57 281//57
f 201//58 183//58 289//58 288//58
f 181//61 173//61 274//61 285//61
f 132//60 131//60 258//60 261//60
f 264//57 269//57 251//57 254//57
f 204//58 186//58 293//58 292//58
f 183//61 177//61 278//61 289//61
f 250//57 267//57 237//57 240//57
f 94//60 209//60 235//60 225//60
f 229//57 228//57 231//57 234//57
f 113//62 149//62 241//62 244//62
f 112//60 213//60 249//60 239//60
f 209//62 217//62 266//62 235//62
f 186//61 180//61 282//61 293//61
f 272//57 283//57 286//57 273//57
f 114//60 113//60 244//60 247//60
f 199//58 181//58 285//58 284//58
f 243//57 242//57 245//57 248//57
f 138//61 96//61 233//61 232//61
f 150//61 114//61 247//61 246//61
f 131//62 167//62 255//62 258//62
f 213//62 219//62 268//62 249//62
f 224//63 225//63 226//63 223//63
f 228//64 229//64 230//64 227//64
f 232//63 233//63 234//63 231//63
f 229//65 234//65 233//65 230//65
f 236//65 226//65 225//65 235//65
f 238//63 239//63 240//63 237//63
f 242//64 243//64 244//64 241//64
f 246//63 247//63 248//63 245//63
f 250//65 240//65 239//65 249//65
f 243//65 248//65 247//65 244//65
f 252//63 253//63 254//63 251//63
f 256//64 257//64 258//64 255//64
f 260//63 261//63 262//63 259//63
f 264//65 254//65 253//65 263//65
f 257//65 262//65 261//65 258//65
f 227//66 232//66 231//66 228//66
f 266//66 224//66 223//66 265//66
f 241//66 246//66 245//66 242//66
f 268//66 238//66 237//66 267//66
f 270//66 252//66 251//66 269//66
f 255//66 260//66 259//66 256//66
f 272//65 273//65 274//65 271//65
f 276//65 277//65 278//65 275//65
f 280//65 281//65 282//65 279//65
f 284//66 285//66 286//66 283//66
f 288//66 289//66 290//66 287//66
f 292//66 293//66 294//66 291//66
f 293//63 282//63 281//63 294//63
f 289//63 278//63 277//63 290//63
f 285//63 274//63 273//63 286//63
f 283//64 272//64 271//64 284//64
f 287//64 276//64 275//64 288//64
f 291//64 280//64 279//64 292//64
f 269//64 264//64 263//64 270//64
f 267//64 250//64 249//64 268//64
f 265//64 236//64 235//64 266//64
f 236//57 265//57 223//57 226//57
o Cube.002
v 1.073950 0.762911 0.830879
v 1.073950 -0.448827 0.830879
v 1.073950 0.762911 -1.078581
v 1.073950 -0.448827 -1.078581
v 0.519346 0.762911 0.830879
v 0.519346 -0.448827 0.830879
v 0.519346 0.762911 -1.078581
v 0.519346 -0.448827 -1.078581
vn 1.000000 0.000000 0.000000
vn 0.000000 0.000000 -1.000000
vn -1.000000 0.000000 0.000000
vn 0.000000 0.000000 1.000000
vn 0.000000 1.000000 0.000000
vn 0.000000 -1.000000 0.000000
usemtl None
s off
f 296//67 298//67 297//67 295//67
f 298//68 302//68 301//68 297//68
f 302//69 300//69 299//69 301//69
f 300//70 296//70 295//70 299//70
f 295//71 297//71 301//71 299//71
f 300//72 302//72 298//72 296//72
o Cube.001
v 1.027385 0.860375 -1.425993
v 1.027385 0.674092 -1.425993
v 1.027385 0.860375 -2.074456
v 1.027385 0.674092 -2.074456
v 0.839038 0.860375 -1.425993
v 0.839038 0.674092 -1.425993
v 0.839038 0.860375 -2.074456
v 0.839038 0.674092 -2.074456
vn 1.000000 0.000000 0.000000
vn 0.000000 0.000000 -1.000000
vn -1.000000 0.000000 0.000000
vn 0.000000 0.000000 1.000000
vn 0.000000 1.000000 0.000000
vn 0.000000 -1.000000 0.000000
usemtl None
s off
f 304//73 306//73 305//73 303//73
f 306//74 310//74 309//74 305//74
f 310//75 308//75 307//75 309//75
f 308//76 304//76 303//76 307//76
f 303//77 305//77 309//77 307//77
f 308//78 310//78 306//78 304//78
o Cube
v 1.000000 -0.756206 -2.194185
v 1.000000 -0.756206 1.000000
v -1.000000 -0.756206 1.000000
v -1.000000 -0.756206 -2.194185
v 1.000000 1.000000 -2.194184
v 0.999999 1.000000 1.000001
v -1.000000 1.000000 1.000000
v -1.000000 1.000000 -2.194185
v 1.000000 -0.756206 -1.320680
v -1.000000 -0.756206 -1.320681
v 1.000000 1.000000 -1.320680
v -1.000000 1.000000 -1.320680
v 0.738762 -0.756206 -2.194185
v 0.738762 -0.756206 1.000000
v 0.738763 1.000000 -2.194184
v 0.738762 1.000000 1.000000
v 0.738762 1.000000 -1.320680
v 0.738762 -0.756206 -1.320680
v 1.000000 -0.756206 -1.292893
v 1.000000 1.000000 -1.292893
v -1.000000 -0.756206 -1.292894
v -1.000000 1.000000 -1.292894
v 0.738762 1.000000 -1.292893
v 0.738762 -0.756206 -1.292893
v 0.948555 0.957469 -1.320089
v 0.948555 -0.713674 -1.320089
v 0.698428 0.957469 -1.320089
v 0.698428 -0.713674 -1.320089
v 0.698428 -0.713674 -1.293484
v 0.948555 -0.713674 -1.293484
v 0.948555 0.957469 -1.293484
v 0.698428 0.957469 -1.293484
vn 0.000000 -1.000000 0.000000
vn 0.000000 1.000000 0.000000
vn 1.000000 0.000000 0.000000
vn -0.000000 -0.000000 1.000000
vn -1.000000 -0.000000 -0.000000
vn 0.000000 0.000000 -1.000000
vn 0.000000 -0.013900 -0.999900
vn 0.000000 0.013900 0.999900
vn 0.725600 0.688100 0.000000
vn 0.725600 -0.688100 0.000000
vn 0.000000 -0.013900 0.999900
vn 0.011500 0.000000 -0.999900
vn 0.000000 0.013900 -0.999900
vn 0.011500 -0.000000 0.999900
usemtl Material
s off
f 334//79 324//79 313//79 331//79
f 333//80 332//80 317//80 326//80
f 329//81 330//81 316//81 312//81
f 324//82 326//82 317//82 313//82
f 320//83 322//83 318//83 314//83
f 325//84 323//84 314//84 318//84
f 331//83 332//83 322//83 320//83
f 311//81 315//81 321//81 319//81
f 325//80 318//80 322//80 327//80
f 323//79 328//79 320//79 314//79
f 311//79 319//79 328//79 323//79
f 315//80 325//80 327//80 321//80
f 315//84 311//84 323//84 325//84
f 312//82 316//82 326//82 324//82
f 330//80 333//80 326//80 316//80
f 329//79 312//79 324//79 334//79
f 329//85 334//85 339//85 340//85
f 321//86 327//86 337//86 335//86
f 313//83 317//83 332//83 331//83
f 334//87 328//87 338//87 339//87
f 327//80 322//80 332//80 333//80
f 328//79 334//79 331//79 320//79
f 336//79 340//79 339//79 338//79
f 335//80 337//80 342//80 341//80
f 336//81 335//81 341//81 340//81
f 327//88 333//88 342//88 337//88
f 328//89 319//89 336//89 338//89
f 330//90 329//90 340//90 341//90
f 333//91 330//91 341//91 342//91
f 319//92 321//92 335//92 336//92
