# Blender v2.76 (sub 0) OBJ File: "placcard_d'attaque.blend"
# www.blender.org
mtllib placcard_d'attaque_porte.mtl
o Cube.002
v 1.101109 4.958698 0.946859
v 1.101109 0.063589 0.946859
v 1.101109 4.958698 -1.384672
v 1.101109 0.063589 -1.384672
v 1.049892 4.958698 -1.384672
v 1.049892 4.958698 0.946859
v 1.049892 0.063589 0.946859
v 1.049892 0.063589 -1.384672
v 1.101109 4.958698 -1.203010
v 1.101109 4.958698 0.765197
v 1.101109 0.063589 0.765197
v 1.101109 0.063589 -1.203010
v 1.049892 4.958698 -1.203010
v 1.049892 4.958698 0.765197
v 1.049892 0.063589 0.765197
v 1.049892 0.063589 -1.203010
v 1.101109 4.860973 0.946859
v 1.101109 0.161313 0.946859
v 1.101109 0.161314 -1.384672
v 1.101109 4.860973 -1.384672
v 1.049892 4.860973 0.946859
v 1.049892 0.161313 0.946859
v 1.049892 0.161314 -1.384672
v 1.049892 4.860973 -1.384672
v 1.049892 0.161314 0.765197
v 1.049892 4.860973 0.765197
v 1.049892 0.161314 -1.203010
v 1.049892 4.860973 -1.203010
v 1.101109 4.860973 0.765197
v 1.101109 0.161313 0.765197
v 1.101109 4.860973 -1.203010
v 1.101109 0.161313 -1.203010
v 1.101109 4.958698 -0.546941
v 1.101109 4.958698 0.109128
v 1.101109 0.063589 0.109128
v 1.101109 0.063589 -0.546941
v 1.049892 4.958698 -0.546941
v 1.049892 4.958698 0.109128
v 1.049892 0.063589 0.109128
v 1.049892 0.063589 -0.546941
v 1.166833 4.860973 -0.546941
v 1.166833 4.860973 0.109128
v 1.166834 0.161313 -0.546941
v 1.166834 0.161313 0.109128
v 1.049892 4.860973 0.109128
v 1.049892 4.860973 -0.546941
v 1.049892 0.161314 0.109128
v 1.049892 0.161314 -0.546941
v 1.101109 3.294420 0.946859
v 1.101109 1.727867 0.946859
v 1.101109 1.727867 -1.384672
v 1.101109 3.294420 -1.384672
v 1.049892 3.294420 0.946859
v 1.049892 1.727867 0.946859
v 1.049892 1.727867 -1.384672
v 1.049892 3.294420 -1.384672
v 1.049892 1.727867 0.765197
v 1.049892 3.294420 0.765197
v 1.049892 1.727867 -1.203010
v 1.049892 3.294420 -1.203010
v 1.101109 3.294420 0.765197
v 1.101109 1.727867 0.765197
v 1.101109 3.294420 -1.203010
v 1.101109 1.727867 -1.203010
v 1.049892 1.727867 0.109128
v 1.049892 3.294420 0.109128
v 1.049892 1.727867 -0.546941
v 1.049892 3.294420 -0.546941
v 1.166833 3.294420 0.109128
v 1.166834 1.727867 0.109128
v 1.166833 3.294420 -0.546941
v 1.166834 1.727867 -0.546941
v 1.211809 3.294420 0.765197
v 1.211809 1.727867 0.765197
v 1.211809 3.294420 -1.203010
v 1.211809 1.727867 -1.203010
v 1.277534 3.294420 0.109128
v 1.277534 1.727867 0.109128
v 1.277534 3.294420 -0.546941
v 1.277534 1.727867 -0.546941
v 1.101109 2.772235 0.946859
v 1.101109 2.250051 0.946859
v 1.101109 2.250051 -1.384672
v 1.101109 2.772236 -1.384672
v 1.049892 2.772235 0.946859
v 1.049892 2.250051 0.946859
v 1.049892 2.250051 -1.384672
v 1.049892 2.772236 -1.384672
v 1.049892 2.250051 0.765197
v 1.049892 2.772236 0.765197
v 1.049892 2.250051 -1.203010
v 1.049892 2.772236 -1.203010
v 1.101109 2.772235 0.765197
v 1.101109 2.250051 0.765197
v 1.101109 2.772235 -1.203010
v 1.101109 2.250051 -1.203010
v 1.049892 2.250051 0.109128
v 1.049892 2.772236 0.109128
v 1.049892 2.250051 -0.546941
v 1.049892 2.772236 -0.546941
v 1.211809 2.772235 0.765197
v 1.211809 2.250051 0.765197
v 1.211809 2.772235 -1.203010
v 1.211809 2.250051 -1.203010
v 1.277534 2.772235 0.109128
v 1.277534 2.250051 0.109128
v 1.277534 2.772235 -0.546941
v 1.277534 2.250051 -0.546941
v 1.101109 0.063589 -0.765630
v 1.101109 0.063589 -0.984320
v 1.049892 0.063589 -0.765630
v 1.049892 0.063589 -0.984320
v 1.049892 4.860973 -0.765630
v 1.049892 4.860973 -0.984320
v 1.049892 0.161314 -0.765630
v 1.049892 0.161314 -0.984320
v 1.101109 4.958698 -0.984320
v 1.101109 4.958698 -0.765630
v 1.049892 4.958698 -0.984320
v 1.049892 4.958698 -0.765630
v 1.123017 4.860973 -0.984320
v 1.144925 4.860973 -0.765630
v 1.123017 0.161313 -0.984320
v 1.144925 0.161313 -0.765630
v 1.049892 3.294420 -0.765630
v 1.049892 3.294420 -0.984320
v 1.049892 1.727867 -0.765630
v 1.049892 1.727867 -0.984320
v 1.123017 3.294420 -0.984320
v 1.144925 3.294420 -0.765630
v 1.123017 1.727867 -0.984320
v 1.144925 1.727867 -0.765630
v 1.233717 3.294420 -0.984320
v 1.255625 3.294420 -0.765630
v 1.233717 1.727867 -0.984320
v 1.255626 1.727867 -0.765630
v 1.233717 2.772235 -0.984320
v 1.255625 2.772235 -0.765630
v 1.233717 2.250051 -0.984320
v 1.255625 2.250051 -0.765630
v 1.049892 2.772236 -0.765630
v 1.049892 2.772236 -0.984320
v 1.049892 2.250051 -0.765630
v 1.049892 2.250051 -0.984320
v 1.101109 4.958698 0.327817
v 1.101109 4.958698 0.546507
v 1.049892 4.958698 0.327817
v 1.049892 4.958698 0.546507
v 1.144925 4.860973 0.327817
v 1.123017 4.860973 0.546507
v 1.144925 0.161313 0.327817
v 1.123017 0.161313 0.546507
v 1.101109 0.063589 0.546507
v 1.101109 0.063589 0.327817
v 1.049892 0.063589 0.546507
v 1.049892 0.063589 0.327817
v 1.049892 4.860973 0.546507
v 1.049892 4.860973 0.327817
v 1.049892 0.161314 0.546507
v 1.049892 0.161314 0.327817
v 1.144925 3.294420 0.327817
v 1.123017 3.294420 0.546507
v 1.144925 1.727867 0.327817
v 1.123017 1.727867 0.546507
v 1.049892 3.294420 0.546507
v 1.049892 3.294420 0.327817
v 1.049892 1.727867 0.546507
v 1.049892 1.727867 0.327817
v 1.255625 3.294420 0.327817
v 1.233717 3.294420 0.546507
v 1.255626 1.727867 0.327817
v 1.233717 1.727867 0.546507
v 1.255625 2.772235 0.327817
v 1.233717 2.772235 0.546507
v 1.255625 2.250051 0.327817
v 1.233717 2.250051 0.546507
v 1.049892 2.772236 0.546507
v 1.049892 2.772236 0.327817
v 1.049892 2.250051 0.546507
v 1.049892 2.250051 0.327817
v 1.188449 4.860973 -0.984320
v 1.210357 4.860973 -0.765630
v 1.188449 0.161313 -0.984320
v 1.210357 0.161313 -0.765630
v 1.188449 3.294420 -0.984320
v 1.210357 3.294420 -0.765630
v 1.188449 1.727867 -0.984320
v 1.210357 1.727867 -0.765630
v 1.210357 4.860973 0.327817
v 1.188449 4.860973 0.546507
v 1.210357 0.161313 0.327817
v 1.188449 0.161313 0.546507
v 1.210357 3.294420 0.327817
v 1.188449 3.294420 0.546507
v 1.210357 1.727867 0.327817
v 1.188449 1.727867 0.546507
v 1.464088 2.117701 -1.092331
v 1.406504 1.919775 -1.092331
v 1.308663 1.722191 -1.092331
v 1.303627 3.321324 -1.092331
v 1.332585 1.722177 -1.082441
v 1.327571 3.321317 -1.082441
v 1.342489 1.722171 -1.058567
v 1.337483 3.321315 -1.058567
v 1.332585 1.722177 -1.034692
v 1.327571 3.321317 -1.034692
v 1.308663 1.722191 -1.024803
v 1.303627 3.321324 -1.024803
v 1.284724 1.722204 -1.034692
v 1.279664 3.321331 -1.034692
v 1.274802 1.722210 -1.058567
v 1.269732 3.321334 -1.058567
v 1.284724 1.722204 -1.082441
v 1.279664 3.321331 -1.082441
v 1.494745 2.316646 -1.092331
v 1.506376 2.516319 -1.092331
v 1.494652 2.716719 -1.092331
v 1.463396 2.918138 -1.092331
v 1.403641 3.119900 -1.092331
v 1.425716 3.119886 -1.082441
v 1.484787 2.918118 -1.082441
v 1.518268 2.716692 -1.082441
v 1.530251 2.516285 -1.082441
v 1.518400 2.316613 -1.082441
v 1.485513 2.117674 -1.082441
v 1.428514 1.919754 -1.082441
v 1.434832 3.119880 -1.058567
v 1.493531 2.918109 -1.058567
v 1.528758 2.716680 -1.058567
v 1.540140 2.516271 -1.058567
v 1.528942 2.316599 -1.058567
v 1.494258 2.117662 -1.058567
v 1.437605 1.919746 -1.058567
v 1.425716 3.119886 -1.034692
v 1.484787 2.918118 -1.034692
v 1.518268 2.716692 -1.034692
v 1.530251 2.516285 -1.034692
v 1.518400 2.316613 -1.034692
v 1.485513 2.117674 -1.034692
v 1.428514 1.919754 -1.034692
v 1.403641 3.119900 -1.024803
v 1.463396 2.918138 -1.024803
v 1.494652 2.716719 -1.024803
v 1.506376 2.516319 -1.024803
v 1.494745 2.316646 -1.024803
v 1.464088 2.117701 -1.024803
v 1.406504 1.919775 -1.024803
v 1.381472 3.119913 -1.034692
v 1.441857 2.918159 -1.034692
v 1.471729 2.716746 -1.034692
v 1.482502 2.516351 -1.034692
v 1.471816 2.316678 -1.034692
v 1.442501 2.117728 -1.034692
v 1.384405 1.919795 -1.034692
v 1.372262 3.119919 -1.058567
v 1.432976 2.918167 -1.058567
v 1.461943 2.716758 -1.058567
v 1.472613 2.516364 -1.058567
v 1.462015 2.316692 -1.058567
v 1.433607 2.117739 -1.058567
v 1.375225 1.919804 -1.058567
v 1.381472 3.119913 -1.082441
v 1.441857 2.918159 -1.082441
v 1.471729 2.716746 -1.082441
v 1.482502 2.516351 -1.082441
v 1.471816 2.316678 -1.082441
v 1.442501 2.117728 -1.082441
v 1.384405 1.919795 -1.082441
v 1.393662 1.917738 -1.067055
v 1.021585 1.910034 -1.097135
v 1.394736 1.927723 -1.082907
v 1.022660 1.920018 -1.112986
v 1.394696 1.946014 -1.087095
v 1.022620 1.938310 -1.117175
v 1.021585 3.073603 -1.097135
v 1.393662 3.081307 -1.067055
v 1.020025 1.914204 -1.078906
v 1.392102 1.921909 -1.048827
v 1.018893 1.930087 -1.068979
v 1.390970 1.937792 -1.038899
v 1.018853 1.948379 -1.073167
v 1.390930 1.956083 -1.043087
v 1.019928 1.958364 -1.089018
v 1.392005 1.966068 -1.058938
v 1.021488 1.954193 -1.107247
v 1.393565 1.961897 -1.077167
v 1.394736 3.091292 -1.082907
v 1.022660 3.083588 -1.112986
v 1.394696 3.109583 -1.087095
v 1.022620 3.101879 -1.117175
v 1.020025 3.077774 -1.078906
v 1.392102 3.085478 -1.048827
v 1.018893 3.093657 -1.068979
v 1.390970 3.101361 -1.038899
v 1.018853 3.111948 -1.073167
v 1.390930 3.119652 -1.043087
v 1.019928 3.121933 -1.089018
v 1.392005 3.129637 -1.058938
v 1.021488 3.117762 -1.107247
v 1.393565 3.125466 -1.077167
vn 1.000000 0.000000 0.000000
vn -1.000000 -0.000000 0.000000
vn 0.000000 1.000000 0.000000
vn 0.000000 0.000000 -1.000000
vn 0.000000 0.000000 1.000000
vn 0.000000 -1.000000 0.000000
vn 0.992500 -0.111300 -0.049700
vn 0.992500 0.111300 -0.049700
vn 0.995000 0.000000 -0.099700
vn 0.995000 0.000000 0.099700
vn 0.871500 0.488400 0.043700
vn 0.829800 0.558100 0.000000
vn 0.871500 -0.488400 0.043700
vn 0.829800 -0.558100 0.000000
vn 0.871500 0.488400 -0.043700
vn 0.946800 0.318400 -0.047400
vn 0.871500 -0.488400 -0.043700
vn 0.946800 -0.318400 -0.047400
vn 0.992500 -0.111300 0.049700
vn 0.946800 -0.318400 0.047400
vn 0.992500 0.111300 0.049700
vn 0.946800 0.318400 0.047400
vn -0.405700 -0.061600 -0.911900
vn -0.922900 -0.134800 -0.360700
vn 0.387700 0.190700 -0.901800
vn -0.409300 -0.121900 -0.904200
vn -0.923500 -0.049400 -0.380500
vn 0.846900 0.411000 -0.337400
vn -0.389100 0.021700 -0.920900
vn -0.923300 0.049200 -0.380800
vn 0.846900 0.411000 0.337400
vn -0.405200 0.061100 -0.912200
vn -0.922800 0.133900 -0.361400
vn 0.387700 0.190700 0.901800
vn -0.409400 0.119600 -0.904500
vn -0.901700 0.265300 -0.341400
vn -0.386700 -0.193700 0.901700
vn -0.387100 0.193500 -0.901500
vn -0.840200 0.425400 -0.336200
vn -0.839800 -0.426000 0.336600
vn 0.000300 1.000000 -0.000000
vn -0.386700 -0.193700 -0.901600
vn -0.839800 -0.426000 -0.336600
vn -0.389200 -0.021800 -0.920900
vn -0.900400 -0.270200 -0.341100
vn -0.000600 -1.000000 0.000000
vn -0.840200 0.425400 0.336200
vn -0.901700 0.265300 0.341400
vn -0.922800 0.133900 0.361400
vn -0.923300 0.049200 0.380800
vn -0.923500 -0.049400 0.380500
vn -0.922900 -0.134800 0.360700
vn -0.900400 -0.270200 0.341100
vn -0.387100 0.193500 0.901500
vn -0.409400 0.119600 0.904500
vn -0.405200 0.061100 0.912200
vn -0.389100 0.021700 0.920900
vn -0.389200 -0.021800 0.920900
vn -0.405700 -0.061600 0.911900
vn -0.409300 -0.121900 0.904200
vn 0.388100 -0.190300 0.901700
vn 0.411400 -0.119100 0.903700
vn 0.400900 -0.064000 0.913900
vn 0.384100 -0.022600 0.923000
vn 0.384400 0.022700 0.922900
vn 0.401500 0.064500 0.913600
vn 0.411200 0.121100 0.903500
vn 0.847500 -0.409800 0.337300
vn 0.904600 -0.259700 0.338000
vn 0.915900 -0.155500 0.370000
vn 0.918100 -0.053000 0.392900
vn 0.918400 0.053500 0.392000
vn 0.916200 0.156300 0.369000
vn 0.903500 0.263700 0.337900
vn 0.847500 -0.409800 -0.337300
vn 0.904600 -0.259700 -0.338000
vn 0.915900 -0.155500 -0.370000
vn 0.918100 -0.053000 -0.392900
vn 0.918400 0.053500 -0.392000
vn 0.916200 0.156300 -0.369000
vn 0.903500 0.263700 -0.337900
vn 0.388200 -0.190300 -0.901700
vn 0.411400 -0.119100 -0.903700
vn 0.400900 -0.064000 -0.913900
vn 0.384100 -0.022600 -0.923000
vn 0.384400 0.022700 -0.922900
vn 0.401500 0.064500 -0.913600
vn 0.411200 0.121100 -0.903500
vn -0.060300 0.846400 0.529100
vn 0.060300 -0.846400 -0.529100
vn 0.057300 0.532100 -0.844700
vn 0.083100 -0.222300 -0.971400
vn -0.057300 -0.532100 0.844700
vn 0.002100 -0.974800 0.223200
vn 0.996500 0.020600 0.080600
vn -0.002100 0.974800 -0.223200
vn -0.083100 0.222300 0.971400
vn -0.996500 -0.020600 -0.080600
usemtl Material
s off
f 32//1 12//1 4//1 19//1
f 27//2 23//2 8//2 16//2
f 10//3 14//3 6//3 1//3
f 20//4 24//4 5//4 3//4
f 18//5 22//5 7//5 2//5
f 12//6 16//6 8//6 4//6
f 2//6 7//6 15//6 11//6
f 110//6 112//6 16//6 12//6
f 3//3 5//3 13//3 9//3
f 146//3 148//3 14//3 10//3
f 22//2 25//2 15//2 7//2
f 116//2 27//2 16//2 112//2
f 18//1 2//1 11//1 30//1
f 123//7 110//7 12//7 32//7
f 117//8 121//8 31//8 9//8
f 131//9 123//9 32//9 64//9
f 1//1 17//1 29//1 10//1
f 50//1 18//1 30//1 62//1
f 119//2 13//2 28//2 114//2
f 128//2 59//2 27//2 116//2
f 6//2 14//2 26//2 21//2
f 54//2 57//2 25//2 22//2
f 1//5 6//5 21//5 17//5
f 50//5 54//5 22//5 18//5
f 4//4 8//4 23//4 19//4
f 52//4 56//4 24//4 20//4
f 13//2 5//2 24//2 28//2
f 59//2 55//2 23//2 27//2
f 9//1 31//1 20//1 3//1
f 64//1 32//1 19//1 51//1
f 168//2 65//2 47//2 160//2
f 65//2 67//2 48//2 47//2
f 147//2 38//2 45//2 158//2
f 38//2 37//2 46//2 45//2
f 163//10 151//10 44//10 70//10
f 70//1 44//1 43//1 72//1
f 145//11 149//11 42//11 34//11
f 34//12 42//12 41//12 33//12
f 151//13 154//13 35//13 44//13
f 44//14 35//14 36//14 43//14
f 160//2 47//2 39//2 156//2
f 47//2 48//2 40//2 39//2
f 118//3 120//3 37//3 33//3
f 33//3 37//3 38//3 34//3
f 154//6 156//6 39//6 35//6
f 35//6 39//6 40//6 36//6
f 42//1 69//1 71//1 41//1
f 72//6 80//6 78//6 70//6
f 149//10 161//10 69//10 42//10
f 132//6 136//6 80//6 72//6
f 45//2 46//2 68//2 66//2
f 97//2 99//2 67//2 65//2
f 158//2 45//2 66//2 166//2
f 180//2 97//2 65//2 168//2
f 31//1 63//1 52//1 20//1
f 96//1 64//1 51//1 83//1
f 28//2 24//2 56//2 60//2
f 91//2 87//2 55//2 59//2
f 19//4 23//4 55//4 51//4
f 84//4 88//4 56//4 52//4
f 17//5 21//5 53//5 49//5
f 82//5 86//5 54//5 50//5
f 21//2 26//2 58//2 53//2
f 86//2 89//2 57//2 54//2
f 114//2 28//2 60//2 126//2
f 144//2 91//2 59//2 128//2
f 17//1 49//1 61//1 29//1
f 82//1 50//1 62//1 94//1
f 121//9 129//9 63//9 31//9
f 164//6 172//6 74//6 62//6
f 106//1 78//1 80//1 108//1
f 175//10 171//10 78//10 106//10
f 139//9 135//9 76//9 104//9
f 161//3 169//3 77//3 69//3
f 96//4 104//4 76//4 64//4
f 129//3 133//3 75//3 63//3
f 93//5 101//5 73//5 61//5
f 69//3 77//3 79//3 71//3
f 62//5 74//5 102//5 94//5
f 94//5 102//5 101//5 93//5
f 63//4 75//4 103//4 95//4
f 95//4 103//4 104//4 96//4
f 133//9 137//9 103//9 75//9
f 137//9 139//9 104//9 103//9
f 169//10 173//10 105//10 77//10
f 173//10 175//10 106//10 105//10
f 77//1 105//1 107//1 79//1
f 105//1 106//1 108//1 107//1
f 49//1 81//1 93//1 61//1
f 81//1 82//1 94//1 93//1
f 126//2 60//2 92//2 142//2
f 142//2 92//2 91//2 144//2
f 53//2 58//2 90//2 85//2
f 85//2 90//2 89//2 86//2
f 49//5 53//5 85//5 81//5
f 81//5 85//5 86//5 82//5
f 51//4 55//4 87//4 83//4
f 83//4 87//4 88//4 84//4
f 60//2 56//2 88//2 92//2
f 92//2 88//2 87//2 91//2
f 63//1 95//1 84//1 52//1
f 95//1 96//1 83//1 84//1
f 166//2 66//2 98//2 178//2
f 178//2 98//2 97//2 180//2
f 66//2 68//2 100//2 98//2
f 98//2 100//2 99//2 97//2
f 100//2 141//2 143//2 99//2
f 141//2 142//2 144//2 143//2
f 68//2 125//2 141//2 100//2
f 125//2 126//2 142//2 141//2
f 107//9 108//9 140//9 138//9
f 138//9 140//9 139//9 137//9
f 79//9 107//9 138//9 134//9
f 134//9 138//9 137//9 133//9
f 71//3 79//3 134//3 130//3
f 130//3 134//3 133//3 129//3
f 108//9 80//9 136//9 140//9
f 140//9 136//9 135//9 139//9
f 41//9 71//9 130//9 122//9
f 152//5 192//5 196//5 164//5
f 99//2 143//2 127//2 67//2
f 143//2 144//2 128//2 127//2
f 46//2 113//2 125//2 68//2
f 113//2 114//2 126//2 125//2
f 64//6 76//6 135//6 131//6
f 131//6 135//6 136//6 132//6
f 9//3 13//3 119//3 117//3
f 117//3 119//3 120//3 118//3
f 67//2 127//2 115//2 48//2
f 127//2 128//2 116//2 115//2
f 37//2 120//2 113//2 46//2
f 120//2 119//2 114//2 113//2
f 72//9 43//9 124//9 132//9
f 164//3 196//3 195//3 163//3
f 33//15 41//15 122//15 118//15
f 118//16 122//16 121//16 117//16
f 43//17 36//17 109//17 124//17
f 124//18 109//18 110//18 123//18
f 48//2 115//2 111//2 40//2
f 115//2 116//2 112//2 111//2
f 36//6 40//6 111//6 109//6
f 109//6 111//6 112//6 110//6
f 90//2 177//2 179//2 89//2
f 177//2 178//2 180//2 179//2
f 58//2 165//2 177//2 90//2
f 165//2 166//2 178//2 177//2
f 101//10 102//10 176//10 174//10
f 174//10 176//10 175//10 173//10
f 73//10 101//10 174//10 170//10
f 170//10 174//10 173//10 169//10
f 61//3 73//3 170//3 162//3
f 162//3 170//3 169//3 161//3
f 102//10 74//10 172//10 176//10
f 176//10 172//10 171//10 175//10
f 70//6 78//6 171//6 163//6
f 163//6 171//6 172//6 164//6
f 89//2 179//2 167//2 57//2
f 179//2 180//2 168//2 167//2
f 26//2 157//2 165//2 58//2
f 157//2 158//2 166//2 165//2
f 29//10 61//10 162//10 150//10
f 149//4 189//4 193//4 161//4
f 11//6 15//6 155//6 153//6
f 153//6 155//6 156//6 154//6
f 25//2 159//2 155//2 15//2
f 159//2 160//2 156//2 155//2
f 30//19 11//19 153//19 152//19
f 152//20 153//20 154//20 151//20
f 10//21 29//21 150//21 146//21
f 146//22 150//22 149//22 145//22
f 62//10 30//10 152//10 164//10
f 132//3 188//3 187//3 131//3
f 14//2 148//2 157//2 26//2
f 148//2 147//2 158//2 157//2
f 57//2 167//2 159//2 25//2
f 167//2 168//2 160//2 159//2
f 34//3 38//3 147//3 145//3
f 145//3 147//3 148//3 146//3
f 182//9 186//9 185//9 181//9
f 188//9 184//9 183//9 187//9
f 190//10 194//10 193//10 189//10
f 196//10 192//10 191//10 195//10
f 124//5 184//5 188//5 132//5
f 150//3 190//3 189//3 149//3
f 130//5 186//5 182//5 122//5
f 163//4 195//4 191//4 151//4
f 131//4 187//4 183//4 123//4
f 121//4 181//4 185//4 129//4
f 151//6 191//6 192//6 152//6
f 122//3 182//3 181//3 121//3
f 129//6 185//6 186//6 130//6
f 123//6 183//6 184//6 124//6
f 161//6 193//6 194//6 162//6
f 162//5 194//5 190//5 150//5
f 264//23 263//23 218//23 217//23
f 257//24 256//24 263//24 264//24
f 219//25 200//25 202//25 220//25
f 263//26 262//26 219//26 218//26
f 258//27 257//27 264//27 265//27
f 220//28 202//28 204//28 227//28
f 266//29 265//29 216//29 215//29
f 259//30 258//30 265//30 266//30
f 227//31 204//31 206//31 234//31
f 267//32 266//32 215//32 197//32
f 260//33 259//33 266//33 267//33
f 234//34 206//34 208//34 241//34
f 268//35 267//35 197//35 198//35
f 261//36 260//36 267//36 268//36
f 241//37 208//37 210//37 248//37
f 213//38 268//38 198//38 199//38
f 211//39 261//39 268//39 213//39
f 248//40 210//40 212//40 255//40
f 202//41 200//41 214//41 212//41 210//41 208//41 206//41 204//41
f 262//42 214//42 200//42 219//42
f 255//43 212//43 214//43 262//43
f 265//44 264//44 217//44 216//44
f 256//45 255//45 262//45 263//45
f 199//46 201//46 203//46 205//46 207//46 209//46 211//46 213//46
f 209//47 254//47 261//47 211//47
f 254//48 253//48 260//48 261//48
f 253//49 252//49 259//49 260//49
f 252//50 251//50 258//50 259//50
f 251//51 250//51 257//51 258//51
f 250//52 249//52 256//52 257//52
f 249//53 248//53 255//53 256//53
f 207//54 247//54 254//54 209//54
f 247//55 246//55 253//55 254//55
f 246//56 245//56 252//56 253//56
f 245//57 244//57 251//57 252//57
f 244//58 243//58 250//58 251//58
f 243//59 242//59 249//59 250//59
f 242//60 241//60 248//60 249//60
f 205//61 240//61 247//61 207//61
f 240//62 239//62 246//62 247//62
f 239//63 238//63 245//63 246//63
f 238//64 237//64 244//64 245//64
f 237//65 236//65 243//65 244//65
f 236//66 235//66 242//66 243//66
f 235//67 234//67 241//67 242//67
f 203//68 233//68 240//68 205//68
f 233//69 232//69 239//69 240//69
f 232//70 231//70 238//70 239//70
f 231//71 230//71 237//71 238//71
f 230//72 229//72 236//72 237//72
f 229//73 228//73 235//73 236//73
f 228//74 227//74 234//74 235//74
f 201//75 226//75 233//75 203//75
f 226//76 225//76 232//76 233//76
f 225//77 224//77 231//77 232//77
f 224//78 223//78 230//78 231//78
f 223//79 222//79 229//79 230//79
f 222//80 221//80 228//80 229//80
f 221//81 220//81 227//81 228//81
f 199//82 198//82 226//82 201//82
f 198//83 197//83 225//83 226//83
f 197//84 215//84 224//84 225//84
f 215//85 216//85 223//85 224//85
f 216//86 217//86 222//86 223//86
f 217//87 218//87 221//87 222//87
f 218//88 219//88 220//88 221//88
f 295//89 296//89 298//89 297//89
f 272//90 271//90 269//90 270//90
f 299//91 300//91 289//91 290//91
f 274//92 273//92 271//92 272//92
f 291//93 292//93 294//93 293//93
f 270//94 269//94 278//94 277//94
f 275//94 276//94 292//94 291//94
f 276//95 287//95 289//95 300//95 298//95 296//95 294//95 292//95
f 277//93 278//93 280//93 279//93
f 290//92 289//92 287//92 288//92
f 297//96 298//96 300//96 299//96
f 279//97 280//97 282//97 281//97
f 288//90 287//90 276//90 275//90
f 290//98 288//98 275//98 291//98 293//98 295//98 297//98 299//98
f 281//89 282//89 284//89 283//89
f 285//91 286//91 273//91 274//91
f 274//98 272//98 270//98 277//98 279//98 281//98 283//98 285//98
f 283//96 284//96 286//96 285//96
f 293//97 294//97 296//97 295//97
f 269//95 271//95 273//95 286//95 284//95 282//95 280//95 278//95
