# Blender v2.76 (sub 0) OBJ File: "placcard_d'attaque.blend"
# www.blender.org
mtllib placcard_d'attaque_main.mtl
o Cube
v 1.000000 -0.024870 -1.396746
v 1.000000 -0.024870 1.000000
v -1.000000 -0.024870 1.000000
v -1.000000 -0.024870 -1.396746
v 1.000000 5.056796 -1.396745
v 0.999999 5.056796 1.000001
v -1.000000 5.056796 1.000000
v -1.000000 5.056796 -1.396746
v 1.000000 0.066535 -1.353635
v 1.000000 0.066535 0.956889
v 1.000000 4.965391 -1.353635
v 0.999999 4.965391 0.956890
v -0.768530 0.066535 -1.353635
v -0.768530 0.066535 0.956889
v -0.768530 4.965391 -1.353635
v -0.768531 4.965391 0.956890
v -0.975100 0.644727 0.931489
v 0.765555 0.644727 0.931489
v -0.975100 0.644727 -1.362846
v 0.765555 0.644727 -1.362846
v -0.975100 0.690115 -1.362846
v -0.975100 0.690115 0.931489
v 0.765555 0.690115 0.931489
v 0.765555 0.690115 -1.362846
v -0.975100 1.270957 0.931489
v 0.765555 1.270957 0.931489
v -0.975100 1.270957 -1.362846
v 0.765555 1.270957 -1.362846
v -0.975100 1.316344 -1.362846
v -0.975100 1.316344 0.931489
v 0.765555 1.316344 0.931489
v 0.765555 1.316344 -1.362846
v -0.975100 2.050784 0.931489
v 0.765555 2.050784 0.931489
v -0.975100 2.050784 -1.362846
v 0.765555 2.050784 -1.362846
v -0.975100 2.096171 -1.362846
v -0.975100 2.096171 0.931489
v 0.765555 2.096171 0.931489
v 0.765555 2.096171 -1.362846
v -0.975100 2.809893 0.931489
v 0.765555 2.809893 0.931489
v -0.975100 2.809893 -1.362846
v 0.765555 2.809893 -1.362846
v -0.975100 2.855281 -1.362846
v -0.975100 2.855281 0.931489
v 0.765555 2.855281 0.931489
v 0.765555 2.855281 -1.362846
v -0.975100 3.741578 0.931489
v 0.765555 3.741578 0.931489
v -0.975100 3.741578 -1.362846
v 0.765555 3.741578 -1.362846
v -0.975100 3.786966 -1.362846
v -0.975100 3.786966 0.931489
v 0.765555 3.786966 0.931489
v 0.765555 3.786966 -1.362846
vn 0.000000 -1.000000 0.000000
vn 0.000000 1.000000 0.000000
vn 1.000000 0.000000 0.000000
vn -0.000000 -0.000000 1.000000
vn -1.000000 -0.000000 -0.000000
vn 0.000000 0.000000 -1.000000
usemtl Material
s off
f 1//1 2//1 3//1 4//1
f 5//2 8//2 7//2 6//2
f 2//3 1//3 9//3 10//3
f 2//4 6//4 7//4 3//4
f 3//5 7//5 8//5 4//5
f 5//6 1//6 4//6 8//6
f 12//6 10//6 14//6 16//6
f 5//3 6//3 12//3 11//3
f 6//3 2//3 10//3 12//3
f 1//3 5//3 11//3 9//3
f 13//3 15//3 16//3 14//3
f 10//2 9//2 13//2 14//2
f 11//1 12//1 16//1 15//1
f 9//4 11//4 15//4 13//4
f 17//1 19//1 20//1 18//1
f 22//2 23//2 24//2 21//2
f 20//6 19//6 21//6 24//6
f 17//4 18//4 23//4 22//4
f 18//3 20//3 24//3 23//3
f 19//5 17//5 22//5 21//5
f 25//1 27//1 28//1 26//1
f 30//2 31//2 32//2 29//2
f 28//6 27//6 29//6 32//6
f 25//4 26//4 31//4 30//4
f 26//3 28//3 32//3 31//3
f 27//5 25//5 30//5 29//5
f 33//1 35//1 36//1 34//1
f 38//2 39//2 40//2 37//2
f 36//6 35//6 37//6 40//6
f 33//4 34//4 39//4 38//4
f 34//3 36//3 40//3 39//3
f 35//5 33//5 38//5 37//5
f 41//1 43//1 44//1 42//1
f 46//2 47//2 48//2 45//2
f 44//6 43//6 45//6 48//6
f 41//4 42//4 47//4 46//4
f 42//3 44//3 48//3 47//3
f 43//5 41//5 46//5 45//5
f 49//1 51//1 52//1 50//1
f 54//2 55//2 56//2 53//2
f 52//6 51//6 53//6 56//6
f 49//4 50//4 55//4 54//4
f 50//3 52//3 56//3 55//3
f 51//5 49//5 54//5 53//5
