# Blender v2.76 (sub 0) OBJ File: ''
# www.blender.org
mtllib tirroir_d'attaque_main.mtl
o Cube.001
v -0.959741 0.008863 0.904707
v -0.959741 0.008863 1.000000
v -1.000000 0.008863 1.000000
v -1.000000 0.008863 0.904707
v -0.959741 2.008863 0.904707
v -1.000000 2.008863 0.904707
v -1.000000 2.008863 1.000000
v -0.959741 2.008863 1.000000
v 1.000000 1.921863 0.904708
v 1.000000 2.008863 0.904709
v 0.999999 2.008863 1.000001
v 1.000000 1.921863 1.000000
v -0.959741 1.921863 1.000000
v -1.000000 1.921863 1.000000
v -1.000000 1.921863 -0.904708
v -1.000000 2.008864 -0.904708
v -1.000000 2.008864 -1.000000
v -1.000000 1.921863 -1.000000
v -0.959741 0.095863 -1.000000
v -0.959740 0.008864 -1.000000
v -1.000000 0.008864 -1.000000
v -1.000000 0.095863 -1.000000
v -1.000000 1.921863 0.904707
v 1.000000 1.921863 -1.000000
v 1.000000 2.008864 -0.999999
v 1.000000 2.008864 -0.904706
v 1.000000 1.921863 -0.904706
v -0.959741 2.008864 -1.000000
v -0.959741 2.008864 -0.904707
v -0.959741 0.008864 -0.904708
v -1.000000 0.008864 -0.904708
v 1.000000 0.008864 -0.904707
v 1.000000 0.095863 -0.904707
v 1.000000 0.095862 0.904708
v 1.000000 0.008863 0.904707
v 1.000000 1.883628 -0.904706
v 1.000000 1.883628 0.904708
v 1.000000 0.008864 -1.000000
v 1.000000 0.095863 -1.000000
v 1.000000 1.883628 -1.000000
v -1.000000 0.095862 0.904707
v -1.000000 0.095863 -0.904708
v -1.000000 1.883628 0.904707
v -1.000000 1.883628 -0.904708
v -1.000000 0.095862 1.000000
v -1.000000 1.883628 1.000000
v -0.959741 1.921863 -1.000000
v -0.959741 1.415022 -1.000000
v -1.000000 1.415022 -1.000000
v -1.000000 1.883628 -1.000000
v -0.959741 0.095862 1.000000
v -0.959741 1.883628 1.000000
v 1.000000 0.095862 1.000000
v 1.000000 0.008863 1.000000
v 1.000000 1.883628 1.000000
v 1.000000 1.415022 0.904708
v 1.000000 1.415022 1.000000
v -0.959741 1.415022 1.000000
v -1.000000 1.415022 1.000000
v -1.000000 1.415022 -0.904708
v -0.959741 1.453257 -1.000000
v -1.000000 1.453257 -1.000000
v -1.000000 1.415022 0.904707
v 1.000000 1.415022 -1.000000
v 1.000000 1.415022 -0.904706
v -0.959741 1.883628 -1.000000
v 1.000000 1.453257 0.904708
v 1.000000 1.453257 1.000000
v -0.959741 1.453257 1.000000
v -1.000000 1.453257 1.000000
v -1.000000 1.453257 -0.904708
v -1.000000 1.453257 0.904707
v 1.000000 1.453257 -1.000000
v 1.000000 1.453257 -0.904706
v -0.959741 1.453257 -0.666750
v -0.959741 1.883628 -0.666750
v 0.960004 1.415022 1.000000
v 0.960004 1.453257 1.000000
v 0.960004 1.883628 -1.000000
v 0.960004 1.453257 -1.000000
v 0.960004 1.921863 -1.000000
v 0.960004 1.415022 -1.000000
v 0.960004 0.095862 1.000000
v 0.960004 1.415022 -0.663223
v 0.960004 0.095864 -0.663224
v 0.960004 1.883628 1.000000
v 0.960004 1.921863 1.000000
v 0.960004 0.008863 1.000000
v 0.960004 0.095863 -1.000000
v 0.960005 2.008864 -0.999999
v 0.960004 0.008864 -0.904707
v 0.960004 0.008863 0.904707
v 0.960004 0.008864 -1.000000
v 0.960004 2.008864 -0.904706
v 0.960004 2.008863 0.904709
v 0.960003 2.008863 1.000001
v 0.960004 1.453257 -0.666749
v 0.960004 1.883628 -0.666749
v -0.959741 1.415022 -0.663224
v -0.959741 0.095864 -0.663224
v 0.960004 0.095863 0.865841
v -0.959741 0.095863 0.865841
v -0.959741 1.415022 0.865841
v 0.960004 1.415022 0.865842
v 0.960004 0.095863 0.950283
v 0.960004 1.415022 0.950283
v -0.959741 1.415022 0.950283
v -0.959741 0.095863 0.950283
vn 0.000000 -1.000000 -0.000000
vn -0.000000 1.000000 0.000000
vn 1.000000 0.000000 0.000000
vn -0.000000 -0.000000 1.000000
vn -1.000000 0.000000 0.000000
vn 0.000000 0.000000 -1.000000
usemtl Material.001
s 1
f 1//1 2//1 3//1 4//1
f 5//2 6//2 7//2 8//2
f 9//3 10//3 11//3 12//3
f 13//4 8//4 7//4 14//4
f 15//5 16//5 17//5 18//5
f 19//6 20//6 21//6 22//6
f 14//5 7//5 6//5 23//5
f 23//5 6//5 16//5 15//5
f 24//3 25//3 26//3 27//3
f 27//3 26//3 10//3 9//3
f 28//2 17//2 16//2 29//2
f 29//2 16//2 6//2 5//2
f 20//1 30//1 31//1 21//1
f 30//1 1//1 4//1 31//1
f 32//3 33//3 34//3 35//3
f 36//3 27//3 9//3 37//3
f 38//3 39//3 33//3 32//3
f 40//3 24//3 27//3 36//3
f 4//5 41//5 42//5 31//5
f 43//5 23//5 15//5 44//5
f 3//5 45//5 41//5 4//5
f 46//5 14//5 23//5 43//5
f 28//6 47//6 18//6 17//6
f 48//6 19//6 22//6 49//6
f 31//5 42//5 22//5 21//5
f 44//5 15//5 18//5 50//5
f 2//4 51//4 45//4 3//4
f 52//4 13//4 14//4 46//4
f 35//3 34//3 53//3 54//3
f 37//3 9//3 12//3 55//3
f 34//3 56//3 57//3 53//3
f 51//4 58//4 59//4 45//4
f 42//5 60//5 49//5 22//5
f 61//6 48//6 49//6 62//6
f 45//5 59//5 63//5 41//5
f 41//5 63//5 60//5 42//5
f 39//3 64//3 65//3 33//3
f 33//3 65//3 56//3 34//3
f 47//6 66//6 50//6 18//6
f 66//6 61//6 62//6 50//6
f 56//3 67//3 68//3 57//3
f 67//3 37//3 55//3 68//3
f 58//4 69//4 70//4 59//4
f 69//4 52//4 46//4 70//4
f 60//5 71//5 62//5 49//5
f 71//5 44//5 50//5 62//5
f 59//5 70//5 72//5 63//5
f 70//5 46//5 43//5 72//5
f 63//5 72//5 71//5 60//5
f 72//5 43//5 44//5 71//5
f 64//3 73//3 74//3 65//3
f 73//3 40//3 36//3 74//3
f 65//3 74//3 67//3 56//3
f 74//3 36//3 37//3 67//3
f 52//3 69//3 75//3 76//3
f 77//4 78//4 69//4 58//4
f 79//6 80//6 61//6 66//6
f 81//6 79//6 66//6 47//6
f 80//6 82//6 48//6 61//6
f 83//5 77//5 84//5 85//5
f 86//4 87//4 13//4 52//4
f 88//4 83//4 51//4 2//4
f 82//6 89//6 19//6 48//6
f 90//6 81//6 47//6 28//6
f 91//1 92//1 1//1 30//1
f 93//1 91//1 30//1 20//1
f 94//2 29//2 5//2 95//2
f 90//2 28//2 29//2 94//2
f 89//6 93//6 20//6 19//6
f 87//4 96//4 8//4 13//4
f 95//2 5//2 8//2 96//2
f 92//1 88//1 2//1 1//1
f 35//1 54//1 88//1 92//1
f 10//2 95//2 96//2 11//2
f 12//4 11//4 96//4 87//4
f 39//6 38//6 93//6 89//6
f 25//2 90//2 94//2 26//2
f 26//2 94//2 95//2 10//2
f 38//1 32//1 91//1 93//1
f 32//1 35//1 92//1 91//1
f 25//6 24//6 81//6 90//6
f 64//6 39//6 89//6 82//6
f 54//4 53//4 83//4 88//4
f 55//4 12//4 87//4 86//4
f 53//4 57//4 77//4 83//4
f 73//6 64//6 82//6 80//6
f 24//6 40//6 79//6 81//6
f 40//6 73//6 80//6 79//6
f 57//4 68//4 78//4 77//4
f 68//4 55//4 86//4 78//4
f 97//4 98//4 76//4 75//4
f 69//2 78//2 97//2 75//2
f 78//5 86//5 98//5 97//5
f 86//1 52//1 76//1 98//1
f 85//4 84//4 99//4 100//4
f 77//1 58//1 99//1 84//1
f 58//3 51//3 100//3 99//3
f 51//2 83//2 85//2 100//2
f 101//6 102//6 103//6 104//6
f 105//4 106//4 107//4 108//4
f 101//3 104//3 106//3 105//3
f 104//2 103//2 107//2 106//2
f 103//5 102//5 108//5 107//5
f 102//1 101//1 105//1 108//1
